<svg xmlns="http://www.w3.org/2000/svg" xmlns:xlink="http://www.w3.org/1999/xlink" xmlns:lucid="lucid" width="9230" height="8220.5"><g transform="translate(2960 1560)" lucid:page-tab-id="0_0"><path d="M-3000-2000h9500v9000h-9500z" fill="#fff"/><path d="M896.1 40.5v287.32a12 12 0 0 0 12 12H3768a12 12 0 0 1 12 12v31.8" stroke="#333" fill="none"/><path d="M896.6 40.5h-1V40h1z" stroke="#333" stroke-width=".05" fill="#333"/><path d="M3780 398.38l-4.64-14.26h9.28z" stroke="#333" fill="#333"/><path d="M896.1 40.5v287.32a12 12 0 0 1-12 12H-1788a12 12 0 0 0-12 12v31.8" stroke="#333" fill="none"/><path d="M896.6 40.5h-1V40h1z" stroke="#333" stroke-width=".05" fill="#333"/><path d="M-1800 398.38l-4.63-14.26h9.27z" stroke="#333" fill="#333"/><path d="M506.1-432a8 8 0 0 1 8-8h764a8 8 0 0 1 8 8V32a8 8 0 0 1-8 8h-764a8 8 0 0 1-8-8z" stroke="#000" stroke-opacity="0" fill="#f2f3f5"/><use xlink:href="#a" transform="matrix(1,0,0,1,511.0868375445966,-435) translate(181.83950617283963 247.82638888888886)"/><path d="M-1880 408a8 8 0 0 1 8-8h144a8 8 0 0 1 8 8v104a8 8 0 0 1-8 8h-144a8 8 0 0 1-8-8z" stroke="#000" stroke-opacity="0" fill="#fff7a1"/><use xlink:href="#b" transform="matrix(1,0,0,1,-1875,405) translate(42.345679012345684 59.02777777777778)"/><path d="M3700 408a8 8 0 0 1 8-8h144a8 8 0 0 1 8 8v104a8 8 0 0 1-8 8h-144a8 8 0 0 1-8-8z" stroke="#000" stroke-opacity="0" fill="#ffdda6"/><use xlink:href="#c" transform="matrix(1,0,0,1,3705,405) translate(55.925925925925924 59.02777777777778)"/><path d="M-520 388a8 8 0 0 1 8-8h144a8 8 0 0 1 8 8v104a8 8 0 0 1-8 8h-144a8 8 0 0 1-8-8z" stroke="#000" stroke-opacity="0" fill="#cfe4ff"/><use xlink:href="#d" transform="matrix(1,0,0,1,-515,385) translate(42.28395061728395 59.02777777777778)"/><path d="M816.1 408a8 8 0 0 1 8-8h144a8 8 0 0 1 8 8v104a8 8 0 0 1-8 8h-144a8 8 0 0 1-8-8z" stroke="#000" stroke-opacity="0" fill="#c3f7c8"/><use xlink:href="#e" transform="matrix(1,0,0,1,821.0868375183892,405) translate(43.580246913580254 59.02777777777778)"/><path d="M2280 388a8 8 0 0 1 8-8h144a8 8 0 0 1 8 8v104a8 8 0 0 1-8 8h-144a8 8 0 0 1-8-8z" stroke="#000" stroke-opacity="0" fill="#ffd9d9"/><use xlink:href="#f" transform="matrix(1,0,0,1,2285,385) translate(56.48148148148148 59.02777777777778)"/><path d="M896.1 40.5v83.12" stroke="#333" fill="none"/><path d="M896.6 40.5h-1V40h1z" stroke="#333" stroke-width=".05" fill="#333"/><path d="M896.1 138.38l-4.65-14.26h9.27z" stroke="#333" fill="#333"/><path d="M896.1 40.5v343.12" stroke="#333" fill="none"/><path d="M896.6 40.5h-1V40h1z" stroke="#333" stroke-width=".05" fill="#333"/><path d="M896.1 398.38l-4.65-14.26h9.27z" stroke="#333" fill="#333"/><path d="M896.1 40.5v287.32a12 12 0 0 1-12 12H-428a12 12 0 0 0-12 12v11.8" stroke="#333" fill="none"/><path d="M896.6 40.5h-1V40h1z" stroke="#333" stroke-width=".05" fill="#333"/><path d="M-440 378.38l-4.63-14.26h9.26z" stroke="#333" fill="#333"/><path d="M896.1 40.5v287.32a12 12 0 0 0 12 12H2348a12 12 0 0 1 12 12v11.8" stroke="#333" fill="none"/><path d="M896.6 40.5h-1V40h1z" stroke="#333" stroke-width=".05" fill="#333"/><path d="M2360 378.38l-4.64-14.26h9.28z" stroke="#333" fill="#333"/><path d="M-2220 668a8 8 0 0 1 8-8h144a8 8 0 0 1 8 8v104a8 8 0 0 1-8 8h-144a8 8 0 0 1-8-8z" stroke="#000" stroke-opacity="0" fill="#c3f7c8"/><use xlink:href="#e" transform="matrix(1,0,0,1,-2215,665) translate(43.580246913580254 59.02777777777778)"/><path d="M-1580 648a8 8 0 0 1 8-8h144a8 8 0 0 1 8 8v104a8 8 0 0 1-8 8h-144a8 8 0 0 1-8-8z" stroke="#000" stroke-opacity="0" fill="#ffdda6"/><use xlink:href="#c" transform="matrix(1,0,0,1,-1575,645) translate(55.925925925925924 59.02777777777778)"/><path d="M1940 648a8 8 0 0 1 8-8h144a8 8 0 0 1 8 8v104a8 8 0 0 1-8 8h-144a8 8 0 0 1-8-8z" stroke="#000" stroke-opacity="0" fill="#cfe4ff"/><use xlink:href="#d" transform="matrix(1,0,0,1,1945,645) translate(42.28395061728395 59.02777777777778)"/><path d="M2620 648a8 8 0 0 1 8-8h144a8 8 0 0 1 8 8v104a8 8 0 0 1-8 8h-144a8 8 0 0 1-8-8z" stroke="#000" stroke-opacity="0" fill="#c3f7c8"/><use xlink:href="#e" transform="matrix(1,0,0,1,2625,645) translate(43.580246913580254 59.02777777777778)"/><path d="M-880 648a8 8 0 0 1 8-8h144a8 8 0 0 1 8 8v104a8 8 0 0 1-8 8h-144a8 8 0 0 1-8-8z" stroke="#000" stroke-opacity="0" fill="#ffd9d9"/><use xlink:href="#f" transform="matrix(1,0,0,1,-875,645) translate(56.48148148148148 59.02777777777778)"/><path d="M-180 648a8 8 0 0 1 8-8h144a8 8 0 0 1 8 8v104a8 8 0 0 1-8 8h-144a8 8 0 0 1-8-8z" stroke="#000" stroke-opacity="0" fill="#fff7a1"/><use xlink:href="#b" transform="matrix(1,0,0,1,-175,645) translate(42.345679012345684 59.02777777777778)"/><path d="M4060 668a8 8 0 0 1 8-8h144a8 8 0 0 1 8 8v104a8 8 0 0 1-8 8h-144a8 8 0 0 1-8-8z" stroke="#000" stroke-opacity="0" fill="#cfe4ff"/><use xlink:href="#d" transform="matrix(1,0,0,1,4065,665) translate(42.28395061728395 59.02777777777778)"/><path d="M3320 668a8 8 0 0 1 8-8h144a8 8 0 0 1 8 8v104a8 8 0 0 1-8 8h-144a8 8 0 0 1-8-8z" stroke="#000" stroke-opacity="0" fill="#fff7a1"/><use xlink:href="#b" transform="matrix(1,0,0,1,3325,665) translate(42.345679012345684 59.02777777777778)"/><path d="M1120 648a8 8 0 0 1 8-8h144a8 8 0 0 1 8 8v104a8 8 0 0 1-8 8h-144a8 8 0 0 1-8-8z" stroke="#000" stroke-opacity="0" fill="#ffd9d9"/><use xlink:href="#f" transform="matrix(1,0,0,1,1125,645) translate(56.48148148148148 59.02777777777778)"/><path d="M500 648a8 8 0 0 1 8-8h144a8 8 0 0 1 8 8v104a8 8 0 0 1-8 8H508a8 8 0 0 1-8-8z" stroke="#000" stroke-opacity="0" fill="#ffdda6"/><use xlink:href="#c" transform="matrix(1,0,0,1,505,645) translate(55.925925925925924 59.02777777777778)"/><path d="M-2070 928a8 8 0 0 1 8-8h144a8 8 0 0 1 8 8v104a8 8 0 0 1-8 8h-144a8 8 0 0 1-8-8z" stroke="#000" stroke-opacity="0" fill="#ffd9d9"/><use xlink:href="#f" transform="matrix(1,0,0,1,-2065,925) translate(56.48148148148148 59.02777777777778)"/><path d="M-2380 928a8 8 0 0 1 8-8h144a8 8 0 0 1 8 8v104a8 8 0 0 1-8 8h-144a8 8 0 0 1-8-8z" stroke="#000" stroke-opacity="0" fill="#ffdda6"/><use xlink:href="#c" transform="matrix(1,0,0,1,-2375,925) translate(55.925925925925924 59.02777777777778)"/><path d="M-2220 1488a8 8 0 0 1 8-8h144a8 8 0 0 1 8 8v104a8 8 0 0 1-8 8h-144a8 8 0 0 1-8-8z" stroke="#000" stroke-opacity="0" fill="#cfe4ff"/><use xlink:href="#d" transform="matrix(1,0,0,1,-2215,1485) translate(42.28395061728395 59.02777777777778)"/><path d="M-2070 1228a8 8 0 0 1 8-8h144a8 8 0 0 1 8 8v104a8 8 0 0 1-8 8h-144a8 8 0 0 1-8-8z" stroke="#000" stroke-opacity="0" fill="#ffdda6"/><use xlink:href="#c" transform="matrix(1,0,0,1,-2065,1225) translate(55.925925925925924 59.02777777777778)"/><path d="M-2380 1228a8 8 0 0 1 8-8h144a8 8 0 0 1 8 8v104a8 8 0 0 1-8 8h-144a8 8 0 0 1-8-8z" stroke="#000" stroke-opacity="0" fill="#ffd9d9"/><use xlink:href="#f" transform="matrix(1,0,0,1,-2375,1225) translate(56.48148148148148 59.02777777777778)"/><path d="M-1760 948a8 8 0 0 1 8-8h144a8 8 0 0 1 8 8v104a8 8 0 0 1-8 8h-144a8 8 0 0 1-8-8z" stroke="#000" stroke-opacity="0" fill="#cfe4ff"/><use xlink:href="#d" transform="matrix(1,0,0,1,-1755,945) translate(42.28395061728395 59.02777777777778)"/><path d="M-1600 1488a8 8 0 0 1 8-8h144a8 8 0 0 1 8 8v104a8 8 0 0 1-8 8h-144a8 8 0 0 1-8-8z" stroke="#000" stroke-opacity="0" fill="#ffd9d9"/><use xlink:href="#f" transform="matrix(1,0,0,1,-1595,1485) translate(56.48148148148148 59.02777777777778)"/><path d="M-1440 948a8 8 0 0 1 8-8h144a8 8 0 0 1 8 8v104a8 8 0 0 1-8 8h-144a8 8 0 0 1-8-8z" stroke="#000" stroke-opacity="0" fill="#c3f7c8"/><use xlink:href="#e" transform="matrix(1,0,0,1,-1435,945) translate(43.580246913580254 59.02777777777778)"/><path d="M-1440 1238a8 8 0 0 1 8-8h144a8 8 0 0 1 8 8v104a8 8 0 0 1-8 8h-144a8 8 0 0 1-8-8z" stroke="#000" stroke-opacity="0" fill="#cfe4ff"/><use xlink:href="#d" transform="matrix(1,0,0,1,-1435,1235) translate(42.28395061728395 59.02777777777778)"/><path d="M-1760 1238a8 8 0 0 1 8-8h144a8 8 0 0 1 8 8v104a8 8 0 0 1-8 8h-144a8 8 0 0 1-8-8z" stroke="#000" stroke-opacity="0" fill="#c3f7c8"/><use xlink:href="#e" transform="matrix(1,0,0,1,-1755,1235) translate(43.580246913580254 59.02777777777778)"/><path d="M-1990 1040.5v163.12" stroke="#333" fill="none"/><path d="M-1989.5 1040.5h-1v-.5h1z" stroke="#333" stroke-width=".05" fill="#333"/><path d="M-1990 1218.38l-4.63-14.26h9.27z" stroke="#333" fill="#333"/><path d="M-2300 1040.5v163.12" stroke="#333" fill="none"/><path d="M-2299.5 1040.5h-1v-.5h1z" stroke="#333" stroke-width=".05" fill="#333"/><path d="M-2300 1218.38l-4.64-14.26h9.28z" stroke="#333" fill="#333"/><path d="M-1800 520.5V578a12 12 0 0 1-12 12h-316a12 12 0 0 0-12 12v41.62" stroke="#333" fill="none"/><path d="M-1799.5 520.5h-1v-.5h1z" stroke="#333" stroke-width=".05" fill="#333"/><path d="M-2140 658.38l-4.64-14.26h9.28z" stroke="#333" fill="#333"/><path d="M-1800 520.5V578a12 12 0 0 0 12 12h276a12 12 0 0 1 12 12v21.62" stroke="#333" fill="none"/><path d="M-1799.5 520.5h-1v-.5h1z" stroke="#333" stroke-width=".05" fill="#333"/><path d="M-1500 638.38l-4.63-14.26h9.27z" stroke="#333" fill="#333"/><path d="M-1500 760.5V838a12 12 0 0 1-12 12h-156a12 12 0 0 0-12 12v61.62" stroke="#333" fill="none"/><path d="M-1499.5 760.5h-1v-.5h1z" stroke="#333" stroke-width=".05" fill="#333"/><path d="M-1680 938.38l-4.63-14.26h9.27z" stroke="#333" fill="#333"/><path d="M-1500 760.5V838a12 12 0 0 0 12 12h116a12 12 0 0 1 12 12v61.62" stroke="#333" fill="none"/><path d="M-1499.5 760.5h-1v-.5h1z" stroke="#333" stroke-width=".05" fill="#333"/><path d="M-1360 938.38l-4.63-14.26h9.27z" stroke="#333" fill="#333"/><path d="M-1360 1060.5v153.12" stroke="#333" fill="none"/><path d="M-1359.5 1060.5h-1v-.5h1z" stroke="#333" stroke-width=".05" fill="#333"/><path d="M-1360 1228.38l-4.63-14.26h9.27z" stroke="#333" fill="#333"/><path d="M-1680 1060.5v153.12" stroke="#333" fill="none"/><path d="M-1679.5 1060.5h-1v-.5h1z" stroke="#333" stroke-width=".05" fill="#333"/><path d="M-1680 1228.38l-4.63-14.26h9.27z" stroke="#333" fill="#333"/><path d="M-700 1248a8 8 0 0 1 8-8h144a8 8 0 0 1 8 8v104a8 8 0 0 1-8 8h-144a8 8 0 0 1-8-8z" stroke="#000" stroke-opacity="0" fill="#ffdda6"/><use xlink:href="#c" transform="matrix(1,0,0,1,-695,1245) translate(55.925925925925924 59.02777777777778)"/><path d="M0 968a8 8 0 0 1 8-8h144a8 8 0 0 1 8 8v104a8 8 0 0 1-8 8H8a8 8 0 0 1-8-8z" stroke="#000" stroke-opacity="0" fill="#ffd9d9"/><use xlink:href="#f" transform="matrix(1,0,0,1,5,965) translate(56.48148148148148 59.02777777777778)"/><path d="M-880 1488a8 8 0 0 1 8-8h144a8 8 0 0 1 8 8v104a8 8 0 0 1-8 8h-144a8 8 0 0 1-8-8z" stroke="#000" stroke-opacity="0" fill="#c3f7c8"/><use xlink:href="#e" transform="matrix(1,0,0,1,-875,1485) translate(43.580246913580254 59.02777777777778)"/><path d="M-1060 1248a8 8 0 0 1 8-8h144a8 8 0 0 1 8 8v104a8 8 0 0 1-8 8h-144a8 8 0 0 1-8-8z" stroke="#000" stroke-opacity="0" fill="#fff7a1"/><use xlink:href="#b" transform="matrix(1,0,0,1,-1055,1245) translate(42.345679012345684 59.02777777777778)"/><path d="M-1060 948a8 8 0 0 1 8-8h144a8 8 0 0 1 8 8v104a8 8 0 0 1-8 8h-144a8 8 0 0 1-8-8z" stroke="#000" stroke-opacity="0" fill="#ffdda6"/><use xlink:href="#c" transform="matrix(1,0,0,1,-1055,945) translate(55.925925925925924 59.02777777777778)"/><path d="M-800 760.5V838a12 12 0 0 1-12 12h-156a12 12 0 0 0-12 12v61.62" stroke="#333" fill="none"/><path d="M-799.5 760.5h-1v-.5h1z" stroke="#333" stroke-width=".05" fill="#333"/><path d="M-980 938.38l-4.63-14.26h9.26z" stroke="#333" fill="#333"/><path d="M-980 1060.5v163.12" stroke="#333" fill="none"/><path d="M-979.5 1060.5h-1v-.5h1z" stroke="#333" stroke-width=".05" fill="#333"/><path d="M-980 1238.38l-4.63-14.26h9.26z" stroke="#333" fill="#333"/><path d="M-100 760.5V848a12 12 0 0 0 12 12H68a12 12 0 0 1 12 12v71.62" stroke="#333" fill="none"/><path d="M-99.5 760.5h-1v-.5h1z" stroke="#333" stroke-width=".05" fill="#333"/><path d="M80 958.38l-4.64-14.26h9.28z" stroke="#333" fill="#333"/><path d="M-2140 780.5V838a12 12 0 0 0 12 12h126a12 12 0 0 1 12 12v41.62" stroke="#333" fill="none"/><path d="M-2139.5 780.5h-1v-.5h1z" stroke="#333" stroke-width=".05" fill="#333"/><path d="M-1990 918.38l-4.63-14.26h9.27z" stroke="#333" fill="#333"/><path d="M-2140 780.5V838a12 12 0 0 1-12 12h-136a12 12 0 0 0-12 12v41.62" stroke="#333" fill="none"/><path d="M-2139.5 780.5h-1v-.5h1z" stroke="#333" stroke-width=".05" fill="#333"/><path d="M-2300 918.38l-4.64-14.26h9.28z" stroke="#333" fill="#333"/><path d="M-700 948a8 8 0 0 1 8-8h144a8 8 0 0 1 8 8v104a8 8 0 0 1-8 8h-144a8 8 0 0 1-8-8z" stroke="#000" stroke-opacity="0" fill="#fff7a1"/><use xlink:href="#b" transform="matrix(1,0,0,1,-695,945) translate(42.345679012345684 59.02777777777778)"/><path d="M-800 760.5V838a12 12 0 0 0 12 12h156a12 12 0 0 1 12 12v61.62" stroke="#333" fill="none"/><path d="M-799.5 760.5h-1v-.5h1z" stroke="#333" stroke-width=".05" fill="#333"/><path d="M-620 938.38l-4.63-14.26h9.26z" stroke="#333" fill="#333"/><path d="M-620 1060.5v163.12" stroke="#333" fill="none"/><path d="M-619.5 1060.5h-1v-.5h1z" stroke="#333" stroke-width=".05" fill="#333"/><path d="M-620 1238.38l-4.63-14.26h9.26z" stroke="#333" fill="#333"/><path d="M-180 1488a8 8 0 0 1 8-8h144a8 8 0 0 1 8 8v104a8 8 0 0 1-8 8h-144a8 8 0 0 1-8-8z" stroke="#000" stroke-opacity="0" fill="#ffdda6"/><use xlink:href="#c" transform="matrix(1,0,0,1,-175,1485) translate(55.925925925925924 59.02777777777778)"/><path d="M-380 968a8 8 0 0 1 8-8h144a8 8 0 0 1 8 8v104a8 8 0 0 1-8 8h-144a8 8 0 0 1-8-8z" stroke="#000" stroke-opacity="0" fill="#c3f7c8"/><use xlink:href="#e" transform="matrix(1,0,0,1,-375,965) translate(43.580246913580254 59.02777777777778)"/><path d="M0 1248a8 8 0 0 1 8-8h144a8 8 0 0 1 8 8v104a8 8 0 0 1-8 8H8a8 8 0 0 1-8-8z" stroke="#000" stroke-opacity="0" fill="#c3f7c8"/><use xlink:href="#e" transform="matrix(1,0,0,1,5,1245) translate(43.580246913580254 59.02777777777778)"/><path d="M-380 1248a8 8 0 0 1 8-8h144a8 8 0 0 1 8 8v104a8 8 0 0 1-8 8h-144a8 8 0 0 1-8-8z" stroke="#000" stroke-opacity="0" fill="#ffd9d9"/><use xlink:href="#f" transform="matrix(1,0,0,1,-375,1245) translate(56.48148148148148 59.02777777777778)"/><path d="M-100 760.5V848a12 12 0 0 1-12 12h-176a12 12 0 0 0-12 12v71.62" stroke="#333" fill="none"/><path d="M-99.5 760.5h-1v-.5h1z" stroke="#333" stroke-width=".05" fill="#333"/><path d="M-300 958.38l-4.63-14.26h9.26z" stroke="#333" fill="#333"/><path d="M-300 1080.5v143.12" stroke="#333" fill="none"/><path d="M-299.5 1080.5h-1v-.5h1z" stroke="#333" stroke-width=".05" fill="#333"/><path d="M-300 1238.38l-4.63-14.26h9.26z" stroke="#333" fill="#333"/><path d="M80 1080.5v143.12" stroke="#333" fill="none"/><path d="M80.5 1080.5h-1v-.5h1z" stroke="#333" stroke-width=".05" fill="#333"/><path d="M80 1238.38l-4.64-14.26h9.28z" stroke="#333" fill="#333"/><path d="M300 948a8 8 0 0 1 8-8h144a8 8 0 0 1 8 8v104a8 8 0 0 1-8 8H308a8 8 0 0 1-8-8z" stroke="#000" stroke-opacity="0" fill="#cfe4ff"/><use xlink:href="#d" transform="matrix(1,0,0,1,305,945) translate(42.28395061728395 59.02777777777778)"/><path d="M660 948a8 8 0 0 1 8-8h144a8 8 0 0 1 8 8v104a8 8 0 0 1-8 8H668a8 8 0 0 1-8-8z" stroke="#000" stroke-opacity="0" fill="#ffd9d9"/><use xlink:href="#f" transform="matrix(1,0,0,1,665,945) translate(56.48148148148148 59.02777777777778)"/><path d="M300 1248a8 8 0 0 1 8-8h144a8 8 0 0 1 8 8v104a8 8 0 0 1-8 8H308a8 8 0 0 1-8-8z" stroke="#000" stroke-opacity="0" fill="#ffd9d9"/><use xlink:href="#f" transform="matrix(1,0,0,1,305,1245) translate(56.48148148148148 59.02777777777778)"/><path d="M660 1248a8 8 0 0 1 8-8h144a8 8 0 0 1 8 8v104a8 8 0 0 1-8 8H668a8 8 0 0 1-8-8z" stroke="#000" stroke-opacity="0" fill="#cfe4ff"/><use xlink:href="#d" transform="matrix(1,0,0,1,665,1245) translate(42.28395061728395 59.02777777777778)"/><path d="M500 1488a8 8 0 0 1 8-8h144a8 8 0 0 1 8 8v104a8 8 0 0 1-8 8H508a8 8 0 0 1-8-8z" stroke="#000" stroke-opacity="0" fill="#fff7a1"/><use xlink:href="#b" transform="matrix(1,0,0,1,505,1485) translate(42.345679012345684 59.02777777777778)"/><path d="M1300 948a8 8 0 0 1 8-8h144a8 8 0 0 1 8 8v104a8 8 0 0 1-8 8h-144a8 8 0 0 1-8-8z" stroke="#000" stroke-opacity="0" fill="#ffdda6"/><use xlink:href="#c" transform="matrix(1,0,0,1,1305,945) translate(55.925925925925924 59.02777777777778)"/><path d="M960 948a8 8 0 0 1 8-8h144a8 8 0 0 1 8 8v104a8 8 0 0 1-8 8H968a8 8 0 0 1-8-8z" stroke="#000" stroke-opacity="0" fill="#fff7a1"/><use xlink:href="#b" transform="matrix(1,0,0,1,965,945) translate(42.345679012345684 59.02777777777778)"/><path d="M1300 1248a8 8 0 0 1 8-8h144a8 8 0 0 1 8 8v104a8 8 0 0 1-8 8h-144a8 8 0 0 1-8-8z" stroke="#000" stroke-opacity="0" fill="#fff7a1"/><use xlink:href="#b" transform="matrix(1,0,0,1,1305,1245) translate(42.345679012345684 59.02777777777778)"/><path d="M960 1248a8 8 0 0 1 8-8h144a8 8 0 0 1 8 8v104a8 8 0 0 1-8 8H968a8 8 0 0 1-8-8z" stroke="#000" stroke-opacity="0" fill="#ffdda6"/><use xlink:href="#c" transform="matrix(1,0,0,1,965,1245) translate(55.925925925925924 59.02777777777778)"/><path d="M1140 1488a8 8 0 0 1 8-8h144a8 8 0 0 1 8 8v104a8 8 0 0 1-8 8h-144a8 8 0 0 1-8-8z" stroke="#000" stroke-opacity="0" fill="#cfe4ff"/><use xlink:href="#d" transform="matrix(1,0,0,1,1145,1485) translate(42.28395061728395 59.02777777777778)"/><path d="M1760 908a8 8 0 0 1 8-8h144a8 8 0 0 1 8 8v104a8 8 0 0 1-8 8h-144a8 8 0 0 1-8-8z" stroke="#000" stroke-opacity="0" fill="#ffdda6"/><use xlink:href="#c" transform="matrix(1,0,0,1,1765,905) translate(55.925925925925924 59.02777777777778)"/><path d="M2140 908a8 8 0 0 1 8-8h144a8 8 0 0 1 8 8v104a8 8 0 0 1-8 8h-144a8 8 0 0 1-8-8z" stroke="#000" stroke-opacity="0" fill="#c3f7c8"/><use xlink:href="#e" transform="matrix(1,0,0,1,2145,905) translate(43.580246913580254 59.02777777777778)"/><path d="M1760 1248a8 8 0 0 1 8-8h144a8 8 0 0 1 8 8v104a8 8 0 0 1-8 8h-144a8 8 0 0 1-8-8z" stroke="#000" stroke-opacity="0" fill="#c3f7c8"/><use xlink:href="#e" transform="matrix(1,0,0,1,1765,1245) translate(43.580246913580254 59.02777777777778)"/><path d="M2140 1248a8 8 0 0 1 8-8h144a8 8 0 0 1 8 8v104a8 8 0 0 1-8 8h-144a8 8 0 0 1-8-8z" stroke="#000" stroke-opacity="0" fill="#ffdda6"/><use xlink:href="#c" transform="matrix(1,0,0,1,2145,1245) translate(55.925925925925924 59.02777777777778)"/><path d="M1960 1488a8 8 0 0 1 8-8h144a8 8 0 0 1 8 8v104a8 8 0 0 1-8 8h-144a8 8 0 0 1-8-8z" stroke="#000" stroke-opacity="0" fill="#fff7a1"/><use xlink:href="#b" transform="matrix(1,0,0,1,1965,1485) translate(42.345679012345684 59.02777777777778)"/><path d="M2780 908a8 8 0 0 1 8-8h144a8 8 0 0 1 8 8v104a8 8 0 0 1-8 8h-144a8 8 0 0 1-8-8z" stroke="#000" stroke-opacity="0" fill="#cfe4ff"/><use xlink:href="#d" transform="matrix(1,0,0,1,2785,905) translate(42.28395061728395 59.02777777777778)"/><path d="M2460 908a8 8 0 0 1 8-8h144a8 8 0 0 1 8 8v104a8 8 0 0 1-8 8h-144a8 8 0 0 1-8-8z" stroke="#000" stroke-opacity="0" fill="#fff7a1"/><use xlink:href="#b" transform="matrix(1,0,0,1,2465,905) translate(42.345679012345684 59.02777777777778)"/><path d="M2452 1228a8 8 0 0 1 8-8h144a8 8 0 0 1 8 8v104a8 8 0 0 1-8 8h-144a8 8 0 0 1-8-8z" stroke="#000" stroke-opacity="0" fill="#cfe4ff"/><use xlink:href="#d" transform="matrix(1,0,0,1,2457.000009027712,1225.00005) translate(42.28395061728395 59.02777777777778)"/><path d="M2800 1228a8 8 0 0 1 8-8h144a8 8 0 0 1 8 8v104a8 8 0 0 1-8 8h-144a8 8 0 0 1-8-8z" stroke="#000" stroke-opacity="0" fill="#fff7a1"/><use xlink:href="#b" transform="matrix(1,0,0,1,2805,1225.00005) translate(42.345679012345684 59.02777777777778)"/><path d="M2640 1488a8 8 0 0 1 8-8h144a8 8 0 0 1 8 8v104a8 8 0 0 1-8 8h-144a8 8 0 0 1-8-8z" stroke="#000" stroke-opacity="0" fill="#ffdda6"/><use xlink:href="#c" transform="matrix(1,0,0,1,2645,1485) translate(55.925925925925924 59.02777777777778)"/><path d="M580 760.5V838a12 12 0 0 1-12 12H392a12 12 0 0 0-12 12v61.62" stroke="#333" fill="none"/><path d="M580.5 760.5h-1v-.5h1z" stroke="#333" stroke-width=".05" fill="#333"/><path d="M380 938.38l-4.63-14.26h9.26z" stroke="#333" fill="#333"/><path d="M580 760.5V838a12 12 0 0 0 12 12h136a12 12 0 0 1 12 12v61.62" stroke="#333" fill="none"/><path d="M580.5 760.5h-1v-.5h1z" stroke="#333" stroke-width=".05" fill="#333"/><path d="M740 938.38l-4.63-14.26h9.26z" stroke="#333" fill="#333"/><path d="M380 1060.5v163.12" stroke="#333" fill="none"/><path d="M380.5 1060.5h-1v-.5h1z" stroke="#333" stroke-width=".05" fill="#333"/><path d="M380 1238.38l-4.63-14.26h9.26z" stroke="#333" fill="#333"/><path d="M740 1060.5v163.12" stroke="#333" fill="none"/><path d="M740.5 1060.5h-1v-.5h1z" stroke="#333" stroke-width=".05" fill="#333"/><path d="M740 1238.38l-4.63-14.26h9.26z" stroke="#333" fill="#333"/><path d="M1200 760.5V838a12 12 0 0 1-12 12h-136a12 12 0 0 0-12 12v61.62" stroke="#333" fill="none"/><path d="M1200.5 760.5h-1v-.5h1z" stroke="#333" stroke-width=".05" fill="#333"/><path d="M1040 938.38l-4.63-14.26h9.27z" stroke="#333" fill="#333"/><path d="M1200 760.5V838a12 12 0 0 0 12 12h156a12 12 0 0 1 12 12v61.62" stroke="#333" fill="none"/><path d="M1200.5 760.5h-1v-.5h1z" stroke="#333" stroke-width=".05" fill="#333"/><path d="M1380 938.38l-4.63-14.26h9.27z" stroke="#333" fill="#333"/><path d="M1040 1060.5v163.12" stroke="#333" fill="none"/><path d="M1040.5 1060.5h-1v-.5h1z" stroke="#333" stroke-width=".05" fill="#333"/><path d="M1040 1238.38l-4.63-14.26h9.27z" stroke="#333" fill="#333"/><path d="M1380 1060.5v163.12" stroke="#333" fill="none"/><path d="M1380.5 1060.5h-1v-.5h1z" stroke="#333" stroke-width=".05" fill="#333"/><path d="M1380 1238.38l-4.63-14.26h9.27z" stroke="#333" fill="#333"/><path d="M2020 760.5V818a12 12 0 0 1-12 12h-156a12 12 0 0 0-12 12v41.62" stroke="#333" fill="none"/><path d="M2020.5 760.5h-1v-.5h1z" stroke="#333" stroke-width=".05" fill="#333"/><path d="M1840 898.38l-4.63-14.26h9.27z" stroke="#333" fill="#333"/><path d="M2360 500.5V558a12 12 0 0 1-12 12h-316a12 12 0 0 0-12 12v41.62" stroke="#333" fill="none"/><path d="M2360.5 500.5h-1v-.5h1z" stroke="#333" stroke-width=".05" fill="#333"/><path d="M2020 638.38l-4.63-14.26h9.27z" stroke="#333" fill="#333"/><path d="M-440 500.5V558a12 12 0 0 1-12 12h-336a12 12 0 0 0-12 12v41.62" stroke="#333" fill="none"/><path d="M-439.5 500.5h-1v-.5h1z" stroke="#333" stroke-width=".05" fill="#333"/><path d="M-800 638.38l-4.63-14.26h9.26z" stroke="#333" fill="#333"/><path d="M-440 500.5V558a12 12 0 0 0 12 12h316a12 12 0 0 1 12 12v41.62" stroke="#333" fill="none"/><path d="M-439.5 500.5h-1v-.5h1z" stroke="#333" stroke-width=".05" fill="#333"/><path d="M-100 638.38l-4.64-14.26h9.28z" stroke="#333" fill="#333"/><path d="M896.1 520.5V568a12 12 0 0 1-12 12H592a12 12 0 0 0-12 12v31.62" stroke="#333" fill="none"/><path d="M896.6 520.5h-1v-.5h1z" stroke="#333" stroke-width=".05" fill="#333"/><path d="M580 638.38l-4.63-14.26h9.26z" stroke="#333" fill="#333"/><path d="M896.1 520.5V568a12 12 0 0 0 12 12H1188a12 12 0 0 1 12 12v31.62" stroke="#333" fill="none"/><path d="M896.6 520.5h-1v-.5h1z" stroke="#333" stroke-width=".05" fill="#333"/><path d="M1200 638.38l-4.63-14.26h9.27z" stroke="#333" fill="#333"/><path d="M2020 760.5V818a12 12 0 0 0 12 12h176a12 12 0 0 1 12 12v41.62" stroke="#333" fill="none"/><path d="M2020.5 760.5h-1v-.5h1z" stroke="#333" stroke-width=".05" fill="#333"/><path d="M2220 898.38l-4.64-14.26h9.28z" stroke="#333" fill="#333"/><path d="M1840 1020.5v203.12" stroke="#333" fill="none"/><path d="M1840.5 1020.5h-1v-.5h1z" stroke="#333" stroke-width=".05" fill="#333"/><path d="M1840 1238.38l-4.63-14.26h9.27z" stroke="#333" fill="#333"/><path d="M2220 1020.5v203.12" stroke="#333" fill="none"/><path d="M2220.5 1020.5h-1v-.5h1z" stroke="#333" stroke-width=".05" fill="#333"/><path d="M2220 1238.38l-4.64-14.26h9.28z" stroke="#333" fill="#333"/><path d="M2220 1360.5v47.5a12 12 0 0 1-12 12h-156a12 12 0 0 0-12 12v31.62" stroke="#333" fill="none"/><path d="M2220.5 1360.5h-1v-.5h1z" stroke="#333" stroke-width=".05" fill="#333"/><path d="M2040 1478.38l-4.63-14.26h9.27z" stroke="#333" fill="#333"/><path d="M1840 1360.5v47.5a12 12 0 0 0 12 12h176a12 12 0 0 1 12 12v31.62" stroke="#333" fill="none"/><path d="M1840.5 1360.5h-1v-.5h1z" stroke="#333" stroke-width=".05" fill="#333"/><path d="M2040 1478.38l-4.63-14.26h9.27z" stroke="#333" fill="#333"/><path d="M1040 1360.5v47.5a12 12 0 0 0 12 12h156a12 12 0 0 1 12 12v31.62" stroke="#333" fill="none"/><path d="M1040.5 1360.5h-1v-.5h1z" stroke="#333" stroke-width=".05" fill="#333"/><path d="M1220 1478.38l-4.63-14.26h9.27z" stroke="#333" fill="#333"/><path d="M1380 1360.5v47.5a12 12 0 0 1-12 12h-136a12 12 0 0 0-12 12v31.62" stroke="#333" fill="none"/><path d="M1380.5 1360.5h-1v-.5h1z" stroke="#333" stroke-width=".05" fill="#333"/><path d="M1220 1478.38l-4.63-14.26h9.27z" stroke="#333" fill="#333"/><path d="M380 1360.5v47.5a12 12 0 0 0 12 12h176a12 12 0 0 1 12 12v31.62" stroke="#333" fill="none"/><path d="M380.5 1360.5h-1v-.5h1z" stroke="#333" stroke-width=".05" fill="#333"/><path d="M580 1478.38l-4.63-14.26h9.26z" stroke="#333" fill="#333"/><path d="M740 1360.5v47.5a12 12 0 0 1-12 12H592a12 12 0 0 0-12 12v31.62" stroke="#333" fill="none"/><path d="M740.5 1360.5h-1v-.5h1z" stroke="#333" stroke-width=".05" fill="#333"/><path d="M580 1478.38l-4.63-14.26h9.26z" stroke="#333" fill="#333"/><path d="M-300 1360.5v47.5a12 12 0 0 0 12 12h176a12 12 0 0 1 12 12v31.62" stroke="#333" fill="none"/><path d="M-299.5 1360.5h-1v-.5h1z" stroke="#333" stroke-width=".05" fill="#333"/><path d="M-100 1478.38l-4.64-14.26h9.28z" stroke="#333" fill="#333"/><path d="M80 1360.5v47.5a12 12 0 0 1-12 12H-88a12 12 0 0 0-12 12v31.62" stroke="#333" fill="none"/><path d="M80.5 1360.5h-1v-.5h1z" stroke="#333" stroke-width=".05" fill="#333"/><path d="M-100 1478.38l-4.64-14.26h9.28z" stroke="#333" fill="#333"/><path d="M-980 1360.5v47.5a12 12 0 0 0 12 12h156a12 12 0 0 1 12 12v31.62" stroke="#333" fill="none"/><path d="M-979.5 1360.5h-1v-.5h1z" stroke="#333" stroke-width=".05" fill="#333"/><path d="M-800 1478.38l-4.63-14.26h9.26z" stroke="#333" fill="#333"/><path d="M-620 1360.5v47.5a12 12 0 0 1-12 12h-156a12 12 0 0 0-12 12v31.62" stroke="#333" fill="none"/><path d="M-619.5 1360.5h-1v-.5h1z" stroke="#333" stroke-width=".05" fill="#333"/><path d="M-800 1478.38l-4.63-14.26h9.26z" stroke="#333" fill="#333"/><path d="M-1680 1350.5v52.5a12 12 0 0 0 12 12h136a12 12 0 0 1 12 12v36.62" stroke="#333" fill="none"/><path d="M-1679.5 1350.5h-1v-.5h1z" stroke="#333" stroke-width=".05" fill="#333"/><path d="M-1520 1478.38l-4.63-14.26h9.27z" stroke="#333" fill="#333"/><path d="M-1360 1350.5v52.5a12 12 0 0 1-12 12h-136a12 12 0 0 0-12 12v36.62" stroke="#333" fill="none"/><path d="M-1359.5 1350.5h-1v-.5h1z" stroke="#333" stroke-width=".05" fill="#333"/><path d="M-1520 1478.38l-4.63-14.26h9.27z" stroke="#333" fill="#333"/><path d="M-1990 1340.5v57.5a12 12 0 0 1-12 12h-126a12 12 0 0 0-12 12v41.62" stroke="#333" fill="none"/><path d="M-1989.5 1340.5h-1v-.5h1z" stroke="#333" stroke-width=".05" fill="#333"/><path d="M-2140 1478.38l-4.64-14.26h9.28z" stroke="#333" fill="#333"/><path d="M-2300 1340.5v57.5a12 12 0 0 0 12 12h136a12 12 0 0 1 12 12v41.62" stroke="#333" fill="none"/><path d="M-2299.5 1340.5h-1v-.5h1z" stroke="#333" stroke-width=".05" fill="#333"/><path d="M-2140 1478.38l-4.64-14.26h9.28z" stroke="#333" fill="#333"/><path d="M2700 760.5V818a12 12 0 0 1-12 12h-136a12 12 0 0 0-12 12v41.62" stroke="#333" fill="none"/><path d="M2700.5 760.5h-1v-.5h1z" stroke="#333" stroke-width=".05" fill="#333"/><path d="M2540 898.38l-4.64-14.26h9.28z" stroke="#333" fill="#333"/><path d="M2360 500.5V558a12 12 0 0 0 12 12h316a12 12 0 0 1 12 12v41.62" stroke="#333" fill="none"/><path d="M2360.5 500.5h-1v-.5h1z" stroke="#333" stroke-width=".05" fill="#333"/><path d="M2700 638.38l-4.64-14.26h9.28z" stroke="#333" fill="#333"/><path d="M2700 760.5V818a12 12 0 0 0 12 12h136a12 12 0 0 1 12 12v41.62" stroke="#333" fill="none"/><path d="M2700.5 760.5h-1v-.5h1z" stroke="#333" stroke-width=".05" fill="#333"/><path d="M2860 898.38l-4.64-14.26h9.28z" stroke="#333" fill="#333"/><path d="M2540 1020.5v183.12" stroke="#333" fill="none"/><path d="M2540.5 1020.5h-1v-.5h1z" stroke="#333" stroke-width=".05" fill="#333"/><path d="M2540 1218.38l-4.64-14.26h9.28z" stroke="#333" fill="#333"/><path d="M2860 1020.5v183.12" stroke="#333" fill="none"/><path d="M2860.5 1020.5h-1v-.5h1z" stroke="#333" stroke-width=".05" fill="#333"/><path d="M2860 1218.38l-4.64-14.26h9.28z" stroke="#333" fill="#333"/><path d="M2532 1340.5v57.5a12 12 0 0 0 12 12h164a12 12 0 0 1 12 12v41.62" stroke="#333" fill="none"/><path d="M2532.5 1340.5h-1v-.5h1z" stroke="#333" stroke-width=".05" fill="#333"/><path d="M2720 1478.38l-4.64-14.26h9.28z" stroke="#333" fill="#333"/><path d="M2880 1340.5v57.5a12 12 0 0 1-12 12h-136a12 12 0 0 0-12 12v41.62" stroke="#333" fill="none"/><path d="M2880.5 1340.5h-1v-.5h1z" stroke="#333" stroke-width=".05" fill="#333"/><path d="M2720 1478.38l-4.64-14.26h9.28z" stroke="#333" fill="#333"/><path d="M3500 908a8 8 0 0 1 8-8h144a8 8 0 0 1 8 8v104a8 8 0 0 1-8 8h-144a8 8 0 0 1-8-8z" stroke="#000" stroke-opacity="0" fill="#cfe4ff"/><use xlink:href="#d" transform="matrix(1,0,0,1,3505,905) translate(42.28395061728395 59.02777777777778)"/><path d="M3140 908a8 8 0 0 1 8-8h144a8 8 0 0 1 8 8v104a8 8 0 0 1-8 8h-144a8 8 0 0 1-8-8z" stroke="#000" stroke-opacity="0" fill="#c3f7c8"/><use xlink:href="#e" transform="matrix(1,0,0,1,3145,905) translate(43.580246913580254 59.02777777777778)"/><path d="M3140 1208a8 8 0 0 1 8-8h144a8 8 0 0 1 8 8v104a8 8 0 0 1-8 8h-144a8 8 0 0 1-8-8z" stroke="#000" stroke-opacity="0" fill="#cfe4ff"/><use xlink:href="#d" transform="matrix(1,0,0,1,3145,1205) translate(42.28395061728395 59.02777777777778)"/><path d="M3500 1208a8 8 0 0 1 8-8h144a8 8 0 0 1 8 8v104a8 8 0 0 1-8 8h-144a8 8 0 0 1-8-8z" stroke="#000" stroke-opacity="0" fill="#c3f7c8"/><use xlink:href="#e" transform="matrix(1,0,0,1,3505,1205) translate(43.580246913580254 59.02777777777778)"/><path d="M3320 1488a8 8 0 0 1 8-8h144a8 8 0 0 1 8 8v104a8 8 0 0 1-8 8h-144a8 8 0 0 1-8-8z" stroke="#000" stroke-opacity="0" fill="#ffd9d9"/><use xlink:href="#f" transform="matrix(1,0,0,1,3325,1485) translate(56.48148148148148 59.02777777777778)"/><path d="M3860 908a8 8 0 0 1 8-8h144a8 8 0 0 1 8 8v104a8 8 0 0 1-8 8h-144a8 8 0 0 1-8-8z" stroke="#000" stroke-opacity="0" fill="#ffd9d9"/><use xlink:href="#f" transform="matrix(1,0,0,1,3865,905) translate(56.48148148148148 59.02777777777778)"/><path d="M4280 908a8 8 0 0 1 8-8h144a8 8 0 0 1 8 8v104a8 8 0 0 1-8 8h-144a8 8 0 0 1-8-8z" stroke="#000" stroke-opacity="0" fill="#fff7a1"/><use xlink:href="#b" transform="matrix(1,0,0,1,4285,905) translate(42.345679012345684 59.02777777777778)"/><path d="M3860 1208a8 8 0 0 1 8-8h144a8 8 0 0 1 8 8v104a8 8 0 0 1-8 8h-144a8 8 0 0 1-8-8z" stroke="#000" stroke-opacity="0" fill="#fff7a1"/><use xlink:href="#b" transform="matrix(1,0,0,1,3865,1205) translate(42.345679012345684 59.02777777777778)"/><path d="M4280 1208a8 8 0 0 1 8-8h144a8 8 0 0 1 8 8v104a8 8 0 0 1-8 8h-144a8 8 0 0 1-8-8z" stroke="#000" stroke-opacity="0" fill="#ffd9d9"/><use xlink:href="#f" transform="matrix(1,0,0,1,4285,1205) translate(56.48148148148148 59.02777777777778)"/><path d="M4100 1488a8 8 0 0 1 8-8h144a8 8 0 0 1 8 8v104a8 8 0 0 1-8 8h-144a8 8 0 0 1-8-8z" stroke="#000" stroke-opacity="0" fill="#c3f7c8"/><use xlink:href="#e" transform="matrix(1,0,0,1,4105,1485) translate(43.580246913580254 59.02777777777778)"/><path d="M3780 520.5V578a12 12 0 0 1-12 12h-356a12 12 0 0 0-12 12v41.62" stroke="#333" fill="none"/><path d="M3780.5 520.5h-1v-.5h1z" stroke="#333" stroke-width=".05" fill="#333"/><path d="M3400 658.38l-4.64-14.26h9.28z" stroke="#333" fill="#333"/><path d="M3780 520.5V578a12 12 0 0 0 12 12h336a12 12 0 0 1 12 12v41.62" stroke="#333" fill="none"/><path d="M3780.5 520.5h-1v-.5h1z" stroke="#333" stroke-width=".05" fill="#333"/><path d="M4140 658.38l-4.64-14.26h9.28z" stroke="#333" fill="#333"/><path d="M3400 780.5V828a12 12 0 0 1-12 12h-156a12 12 0 0 0-12 12v31.62" stroke="#333" fill="none"/><path d="M3400.5 780.5h-1v-.5h1z" stroke="#333" stroke-width=".05" fill="#333"/><path d="M3220 898.38l-4.64-14.26h9.28z" stroke="#333" fill="#333"/><path d="M3400 780.5V828a12 12 0 0 0 12 12h156a12 12 0 0 1 12 12v31.62" stroke="#333" fill="none"/><path d="M3400.5 780.5h-1v-.5h1z" stroke="#333" stroke-width=".05" fill="#333"/><path d="M3580 898.38l-4.64-14.26h9.28z" stroke="#333" fill="#333"/><path d="M3220 1020.5v163.12" stroke="#333" fill="none"/><path d="M3220.5 1020.5h-1v-.5h1z" stroke="#333" stroke-width=".05" fill="#333"/><path d="M3220 1198.38l-4.64-14.26h9.28z" stroke="#333" fill="#333"/><path d="M3580 1020.5v163.12" stroke="#333" fill="none"/><path d="M3580.5 1020.5h-1v-.5h1z" stroke="#333" stroke-width=".05" fill="#333"/><path d="M3580 1198.38l-4.64-14.26h9.28z" stroke="#333" fill="#333"/><path d="M3220 1320.5v67.5a12 12 0 0 0 12 12h156a12 12 0 0 1 12 12v51.62" stroke="#333" fill="none"/><path d="M3220.5 1320.5h-1v-.5h1z" stroke="#333" stroke-width=".05" fill="#333"/><path d="M3400 1478.38l-4.64-14.26h9.28z" stroke="#333" fill="#333"/><path d="M3580 1320.5v67.5a12 12 0 0 1-12 12h-156a12 12 0 0 0-12 12v51.62" stroke="#333" fill="none"/><path d="M3580.5 1320.5h-1v-.5h1z" stroke="#333" stroke-width=".05" fill="#333"/><path d="M3400 1478.38l-4.64-14.26h9.28z" stroke="#333" fill="#333"/><path d="M4140 780.5V828a12 12 0 0 1-12 12h-176a12 12 0 0 0-12 12v31.62" stroke="#333" fill="none"/><path d="M4140.5 780.5h-1v-.5h1z" stroke="#333" stroke-width=".05" fill="#333"/><path d="M3940 898.38l-4.64-14.26h9.28z" stroke="#333" fill="#333"/><path d="M4140 780.5V828a12 12 0 0 0 12 12h196a12 12 0 0 1 12 12v31.62" stroke="#333" fill="none"/><path d="M4140.5 780.5h-1v-.5h1z" stroke="#333" stroke-width=".05" fill="#333"/><path d="M4360 898.38l-4.64-14.26h9.28z" stroke="#333" fill="#333"/><path d="M3940 1020.5v163.12" stroke="#333" fill="none"/><path d="M3940.5 1020.5h-1v-.5h1z" stroke="#333" stroke-width=".05" fill="#333"/><path d="M3940 1198.38l-4.64-14.26h9.28z" stroke="#333" fill="#333"/><path d="M4360 1020.5v163.12" stroke="#333" fill="none"/><path d="M4360.5 1020.5h-1v-.5h1z" stroke="#333" stroke-width=".05" fill="#333"/><path d="M4360 1198.38l-4.64-14.26h9.28z" stroke="#333" fill="#333"/><path d="M3940 1320.5v67.5a12 12 0 0 0 12 12h216a12 12 0 0 1 12 12v51.62" stroke="#333" fill="none"/><path d="M3940.5 1320.5h-1v-.5h1z" stroke="#333" stroke-width=".05" fill="#333"/><path d="M4180 1478.38l-4.64-14.26h9.28z" stroke="#333" fill="#333"/><path d="M4360 1320.5v67.5a12 12 0 0 1-12 12h-156a12 12 0 0 0-12 12v51.62" stroke="#333" fill="none"/><path d="M4360.5 1320.5h-1v-.5h1z" stroke="#333" stroke-width=".05" fill="#333"/><path d="M4180 1478.38l-4.64-14.26h9.28z" stroke="#333" fill="#333"/><path d="M400 2048a8 8 0 0 1 8-8h1014a8 8 0 0 1 8 8v404a8 8 0 0 1-8 8H408a8 8 0 0 1-8-8z" stroke="#000" stroke-opacity="0"/><use xlink:href="#g" transform="matrix(1,0,0,1,405,2045) translate(327.25171467764085 221.278549382716)"/><use xlink:href="#h" transform="matrix(1,0,0,1,405,2045) translate(552.7283950617284 221.278549382716)"/><path d="M-2140 1600.5V1808a12 12 0 0 0 12 12H903a12 12 0 0 1 12 12v191.62" stroke="#333" fill="none"/><path d="M-2139.5 1600.5h-1v-.5h1z" stroke="#333" stroke-width=".05" fill="#333"/><path d="M915 2038.38l-4.63-14.26h9.26z" stroke="#333" fill="#333"/><path d="M-1520 1600.5V1808a12 12 0 0 0 12 12H903a12 12 0 0 1 12 12v191.62" stroke="#333" fill="none"/><path d="M-1519.5 1600.5h-1v-.5h1z" stroke="#333" stroke-width=".05" fill="#333"/><path d="M915 2038.38l-4.63-14.26h9.26z" stroke="#333" fill="#333"/><path d="M-800 1600.5V1808a12 12 0 0 0 12 12H903a12 12 0 0 1 12 12v191.62" stroke="#333" fill="none"/><path d="M-799.5 1600.5h-1v-.5h1z" stroke="#333" stroke-width=".05" fill="#333"/><path d="M915 2038.38l-4.63-14.26h9.26z" stroke="#333" fill="#333"/><path d="M-100 1600.5V1808a12 12 0 0 0 12 12h991a12 12 0 0 1 12 12v191.62" stroke="#333" fill="none"/><path d="M-99.5 1600.5h-1v-.5h1z" stroke="#333" stroke-width=".05" fill="#333"/><path d="M915 2038.38l-4.63-14.26h9.26z" stroke="#333" fill="#333"/><path d="M580 1600.5V1808a12 12 0 0 0 12 12h311a12 12 0 0 1 12 12v191.62" stroke="#333" fill="none"/><path d="M580.5 1600.5h-1v-.5h1z" stroke="#333" stroke-width=".05" fill="#333"/><path d="M915 2038.38l-4.63-14.26h9.26z" stroke="#333" fill="#333"/><path d="M1220 1600.5V1808a12 12 0 0 1-12 12H927a12 12 0 0 0-12 12v191.62" stroke="#333" fill="none"/><path d="M1220.5 1600.5h-1v-.5h1z" stroke="#333" stroke-width=".05" fill="#333"/><path d="M915 2038.38l-4.63-14.26h9.26z" stroke="#333" fill="#333"/><path d="M2040 1600.5V1808a12 12 0 0 1-12 12H927a12 12 0 0 0-12 12v191.62" stroke="#333" fill="none"/><path d="M2040.5 1600.5h-1v-.5h1z" stroke="#333" stroke-width=".05" fill="#333"/><path d="M915 2038.38l-4.63-14.26h9.26z" stroke="#333" fill="#333"/><path d="M2720 1600.5V1808a12 12 0 0 1-12 12H927a12 12 0 0 0-12 12v191.62" stroke="#333" fill="none"/><path d="M2720.5 1600.5h-1v-.5h1z" stroke="#333" stroke-width=".05" fill="#333"/><path d="M915 2038.38l-4.63-14.26h9.26z" stroke="#333" fill="#333"/><path d="M3400 1600.5V1808a12 12 0 0 1-12 12H927a12 12 0 0 0-12 12v191.62" stroke="#333" fill="none"/><path d="M3400.5 1600.5h-1v-.5h1z" stroke="#333" stroke-width=".05" fill="#333"/><path d="M915 2038.38l-4.63-14.26h9.26z" stroke="#333" fill="#333"/><path d="M4180 1600.5V1808a12 12 0 0 1-12 12H927a12 12 0 0 0-12 12v191.62" stroke="#333" fill="none"/><path d="M4180.5 1600.5h-1v-.5h1z" stroke="#333" stroke-width=".05" fill="#333"/><path d="M915 2038.38l-4.63-14.26h9.26z" stroke="#333" fill="#333"/><path d="M655 2808a8 8 0 0 1 8-8h504a8 8 0 0 1 8 8v224a8 8 0 0 1-8 8H663a8 8 0 0 1-8-8z" stroke="#000" stroke-opacity="0" fill="#e08fff"/><use xlink:href="#i" transform="matrix(1,0,0,1,660,2805) translate(73.42352537722923 126.66743827160491)"/><use xlink:href="#j" transform="matrix(1,0,0,1,660,2805) translate(268.1409465020576 126.66743827160491)"/><path d="M915 2460.5v323.12" stroke="#333" fill="none"/><path d="M915.5 2460.5h-1v-.5h1z" stroke="#333" stroke-width=".05" fill="#333"/><path d="M915 2798.38l-4.63-14.26h9.26z" stroke="#333" fill="#333"/><path d="M915 2460.5v27.5a12 12 0 0 0 12 12h4641a12 12 0 0 0 12-12V-468a12 12 0 0 0-12-12H908.1a12 12 0 0 0-12 12v11.62" stroke="#333" fill="none"/><path d="M915.5 2460.5h-1v-.5h1z" stroke="#333" stroke-width=".05" fill="#333"/><path d="M896.1-441.62l-4.65-14.26h9.27z" stroke="#333" fill="#333"/><path d="M-2939.75 540.5a.25.25 0 0 1 .25-.25h9189a.25.25 0 0 1 .25.25.25.25 0 0 1-.25.25h-9189a.25.25 0 0 1-.25-.25zM-2939.75 800.5a.25.25 0 0 1 .25-.25h9189a.25.25 0 0 1 .25.25.25.25 0 0 1-.25.25h-9189a.25.25 0 0 1-.25-.25zM-2939.75 280.5a.25.25 0 0 1 .25-.25h9189a.25.25 0 0 1 .25.25.25.25 0 0 1-.25.25h-9189a.25.25 0 0 1-.25-.25zM-2939.75 1100.5a.25.25 0 0 1 .25-.25h9189a.25.25 0 0 1 .25.25.25.25 0 0 1-.25.25h-9189a.25.25 0 0 1-.25-.25zM-2939.75 1380.5a.25.25 0 0 1 .25-.25h9189a.25.25 0 0 1 .25.25.25.25 0 0 1-.25.25h-9189a.25.25 0 0 1-.25-.25zM-2939.75 1700.5a.25.25 0 0 1 .25-.25h9189a.25.25 0 0 1 .25.25.25.25 0 0 1-.25.25h-9189a.25.25 0 0 1-.25-.25z" stroke="#000" stroke-width=".5" fill="none"/><path d="M-2917.7 308a8 8 0 0 1 8-8h524a8 8 0 0 1 8 8v184a8 8 0 0 1-8 8h-524a8 8 0 0 1-8-8z" fill="none"/><use xlink:href="#k" transform="matrix(1,0,0,1,-2917.6865569272977,300) translate(142.68655692729783 117.67901234567898)"/><use xlink:href="#l" transform="matrix(1,0,0,1,-2917.6865569272977,300) translate(348.2050754458161 117.67901234567898)"/><path d="M-2780 628a8 8 0 0 1 8-8h248.63a8 8 0 0 1 8 8v100.07a8 8 0 0 1-8 8H-2772a8 8 0 0 1-8-8z" fill="#fff" fill-opacity="0"/><use xlink:href="#k" transform="matrix(1,0,0,1,-2775,625) translate(0.18655692729784334 70.71604938271595)"/><use xlink:href="#m" transform="matrix(1,0,0,1,-2775,625) translate(205.70507544581608 70.71604938271595)"/><path d="M-2780 936.46a8 8 0 0 1 8-8h248.63a8 8 0 0 1 8 8v100.08a8 8 0 0 1-8 8H-2772a8 8 0 0 1-8-8z" fill="#fff" fill-opacity="0"/><use xlink:href="#k" transform="matrix(1,0,0,1,-2775,933.462962962963) translate(0.18655692729784334 70.71604938271595)"/><use xlink:href="#n" transform="matrix(1,0,0,1,-2775,933.462962962963) translate(205.70507544581608 70.71604938271595)"/><path d="M-2780 1190.46a8 8 0 0 1 8-8h248.63a8 8 0 0 1 8 8v100.08a8 8 0 0 1-8 8H-2772a8 8 0 0 1-8-8z" fill="#fff" fill-opacity="0"/><use xlink:href="#k" transform="matrix(1,0,0,1,-2775,1187.462962962963) translate(0.18655692729784334 70.71604938271595)"/><use xlink:href="#o" transform="matrix(1,0,0,1,-2775,1187.462962962963) translate(205.70507544581608 70.71604938271595)"/><path d="M-2780 1448a8 8 0 0 1 8-8h248.63a8 8 0 0 1 8 8v100.07a8 8 0 0 1-8 8H-2772a8 8 0 0 1-8-8z" fill="#fff" fill-opacity="0"/><use xlink:href="#k" transform="matrix(1,0,0,1,-2775,1445) translate(0.18655692729784334 70.71604938271595)"/><use xlink:href="#p" transform="matrix(1,0,0,1,-2775,1445) translate(205.70507544581608 70.71604938271595)"/><path d="M4580 379.96a8 8 0 0 1 8-8h524a8 8 0 0 1 8 8v184a8 8 0 0 1-8 8h-524a8 8 0 0 1-8-8z" fill="none"/><use xlink:href="#k" transform="matrix(1,0,0,1,4580,371.96296296296305) translate(142.68655692729783 117.67901234567898)"/><use xlink:href="#l" transform="matrix(1,0,0,1,4580,371.96296296296305) translate(348.2050754458161 117.67901234567898)"/><path d="M4717.7 699.96a8 8 0 0 1 8-8h248.6a8 8 0 0 1 8 8v100.08a8 8 0 0 1-8 8h-248.6a8 8 0 0 1-8-8z" fill="#fff" fill-opacity="0"/><use xlink:href="#k" transform="matrix(1,0,0,1,4722.686556927298,696.962962962963) translate(0.18655692729784334 70.71604938271595)"/><use xlink:href="#m" transform="matrix(1,0,0,1,4722.686556927298,696.962962962963) translate(205.70507544581608 70.71604938271595)"/><path d="M4717.7 1008.43a8 8 0 0 1 8-8h248.6a8 8 0 0 1 8 8v100.07a8 8 0 0 1-8 8h-248.6a8 8 0 0 1-8-8z" fill="#fff" fill-opacity="0"/><use xlink:href="#k" transform="matrix(1,0,0,1,4722.686556927298,1005.4259259259261) translate(0.18655692729784334 70.71604938271595)"/><use xlink:href="#n" transform="matrix(1,0,0,1,4722.686556927298,1005.4259259259261) translate(205.70507544581608 70.71604938271595)"/><path d="M4717.7 1262.43a8 8 0 0 1 8-8h248.6a8 8 0 0 1 8 8v100.07a8 8 0 0 1-8 8h-248.6a8 8 0 0 1-8-8z" fill="#fff" fill-opacity="0"/><use xlink:href="#k" transform="matrix(1,0,0,1,4722.686556927298,1259.425925925926) translate(0.18655692729784334 70.71604938271595)"/><use xlink:href="#o" transform="matrix(1,0,0,1,4722.686556927298,1259.425925925926) translate(205.70507544581608 70.71604938271595)"/><path d="M4717.7 1519.96a8 8 0 0 1 8-8h248.6a8 8 0 0 1 8 8v100.08a8 8 0 0 1-8 8h-248.6a8 8 0 0 1-8-8z" fill="#fff" fill-opacity="0"/><use xlink:href="#k" transform="matrix(1,0,0,1,4722.686556927298,1516.962962962963) translate(0.18655692729784334 70.71604938271595)"/><use xlink:href="#p" transform="matrix(1,0,0,1,4722.686556927298,1516.962962962963) translate(205.70507544581608 70.71604938271595)"/><path d="M-35-1532a8 8 0 0 1 8-8h1884a8 8 0 0 1 8 8v844a8 8 0 0 1-8 8H-27a8 8 0 0 1-8-8z" fill="none"/><use xlink:href="#q" transform="matrix(1,0,0,1,-35,-1540) translate(239.4814814814813 472.6666666666667)"/><use xlink:href="#r" transform="matrix(1,0,0,1,-35,-1540) translate(878.8888888888888 472.6666666666667)"/><path d="M-100 3368a8 8 0 0 1 8-8h1584a8 8 0 0 1 8 8v684a8 8 0 0 1-8 8H-92a8 8 0 0 1-8-8z" fill="none"/><use xlink:href="#s" transform="matrix(1,0,0,1,-100,3360) translate(48 392.6666666666667)"/><use xlink:href="#t" transform="matrix(1,0,0,1,-100,3360) translate(770.3703703703703 392.6666666666667)"/><path d="M-1339.75 4580.5a.25.25 0 0 1 .25-.25H2872a.25.25 0 0 1 .25.25.25.25 0 0 1-.25.25h-4211.5a.25.25 0 0 1-.25-.25zM-1339.75 5640.5a.25.25 0 0 1 .25-.25H2872a.25.25 0 0 1 .25.25.25.25 0 0 1-.25.25h-4211.5a.25.25 0 0 1-.25-.25z" stroke="#000" stroke-width=".5" fill="none"/><path d="M-1680 4928a8 8 0 0 1 8-8h834.24a8 8 0 0 1 8 8v260.9a8 8 0 0 1-8 8H-1672a8 8 0 0 1-8-8z" fill="none"/><use xlink:href="#u" transform="matrix(1,0,0,1,-1680,4920) translate(170.1618655692736 173.9567901234567)"/><use xlink:href="#v" transform="matrix(1,0,0,1,-1680,4920) translate(582.3470507544578 173.9567901234567)"/><path d="M-1680 5888a8 8 0 0 1 8-8h834.24a8 8 0 0 1 8 8v260.9a8 8 0 0 1-8 8H-1672a8 8 0 0 1-8-8z" fill="none"/><use xlink:href="#u" transform="matrix(1,0,0,1,-1680,5880) translate(170.1618655692736 173.9567901234567)"/><use xlink:href="#w" transform="matrix(1,0,0,1,-1680,5880) translate(582.3470507544578 173.9567901234567)"/><path d="M600 4628a8 8 0 0 1 8-8h144a8 8 0 0 1 8 8v104a8 8 0 0 1-8 8H608a8 8 0 0 1-8-8z" stroke="#000" stroke-opacity="0" fill="#c3f7c8"/><use xlink:href="#x" transform="matrix(1,0,0,1,605,4625) translate(31.012345679012356 62.701388888888886)"/><path d="M420 4468a8 8 0 0 1 8-8h224a8 8 0 0 1 8 8v44a8 8 0 0 1-8 8H428a8 8 0 0 1-8-8zM318.04 4208a8 8 0 0 1 8-8h667.92a8 8 0 0 1 8 8v124a8 8 0 0 1-8 8H326.04a8 8 0 0 1-8-8z" fill="none"/><use xlink:href="#y" transform="matrix(1,0,0,1,318.04341875919454,4200) translate(38.75994513031583 48.86419753086422)"/><use xlink:href="#z" transform="matrix(1,0,0,1,318.04341875919454,4200) translate(270.5198902606311 48.86419753086422)"/><use xlink:href="#A" transform="matrix(1,0,0,1,318.04341875919454,4200) translate(390.5829903978052 48.86419753086422)"/><use xlink:href="#B" transform="matrix(1,0,0,1,318.04341875919454,4200) translate(484.22633744855955 48.86419753086422)"/><use xlink:href="#C" transform="matrix(1,0,0,1,318.04341875919454,4200) translate(244.0267489711935 112.27160493827157)"/><path d="M620 4768a8 8 0 0 1 8-8h104a8 8 0 0 1 8 8v44a8 8 0 0 1-8 8H628a8 8 0 0 1-8-8z" stroke="#000" stroke-opacity="0" fill="#f2f3f5"/><use xlink:href="#D" transform="matrix(1,0,0,1,625,4765) translate(11.25960219478739 32.521604938271594)"/><use xlink:href="#E" transform="matrix(1,0,0,1,625,4765) translate(80.49622770919066 32.521604938271594)"/><path d="M-160 4828a8 8 0 0 1 8-8H-8a8 8 0 0 1 8 8v104a8 8 0 0 1-8 8h-144a8 8 0 0 1-8-8z" stroke="#000" stroke-opacity="0" fill="#c3f7c8"/><use xlink:href="#F" transform="matrix(1,0,0,1,-155,4825) translate(12.000000000000014 62.701388888888886)"/><use xlink:href="#G" transform="matrix(1,0,0,1,-155,4825) translate(117.25925925925925 62.701388888888886)"/><path d="M1440 4828a8 8 0 0 1 8-8h144a8 8 0 0 1 8 8v104a8 8 0 0 1-8 8h-144a8 8 0 0 1-8-8z" stroke="#000" stroke-opacity="0" fill="#c3f7c8"/><use xlink:href="#F" transform="matrix(1,0,0,1,1445,4825) translate(12.000000000000014 62.701388888888886)"/><use xlink:href="#H" transform="matrix(1,0,0,1,1445,4825) translate(117.25925925925925 62.701388888888886)"/><path d="M-140 5008a8 8 0 0 1 8-8h104a8 8 0 0 1 8 8v45a8 8 0 0 1-8 8h-104a8 8 0 0 1-8-8z" stroke="#000" stroke-opacity="0" fill="#f2f3f5"/><use xlink:href="#D" transform="matrix(1,0,0,1,-135,5005) translate(0.31310013717423146 32.646604938271594)"/><use xlink:href="#I" transform="matrix(1,0,0,1,-135,5005) translate(69.5497256515775 32.646604938271594)"/><path d="M1460 5008a8 8 0 0 1 8-8h104a8 8 0 0 1 8 8v45a8 8 0 0 1-8 8h-104a8 8 0 0 1-8-8z" stroke="#000" stroke-opacity="0" fill="#f2f3f5"/><use xlink:href="#D" transform="matrix(1,0,0,1,1465,5005) translate(0.31310013717423146 32.646604938271594)"/><use xlink:href="#J" transform="matrix(1,0,0,1,1465,5005) translate(69.5497256515775 32.646604938271594)"/><path d="M-580 5084.9a8 8 0 0 1 8-8h144a8 8 0 0 1 8 8v104a8 8 0 0 1-8 8h-144a8 8 0 0 1-8-8z" stroke="#000" stroke-opacity="0" fill="#c3f7c8"/><use xlink:href="#F" transform="matrix(1,0,0,1,-575,5081.903914590746) translate(1.6296296296296475 62.701388888888886)"/><use xlink:href="#K" transform="matrix(1,0,0,1,-575,5081.903914590746) translate(106.88888888888889 62.701388888888886)"/><path d="M220 5084.9a8 8 0 0 1 8-8h144a8 8 0 0 1 8 8v104a8 8 0 0 1-8 8H228a8 8 0 0 1-8-8z" stroke="#000" stroke-opacity="0" fill="#c3f7c8"/><use xlink:href="#F" transform="matrix(1,0,0,1,225,5081.903914590746) translate(1.6296296296296475 62.701388888888886)"/><use xlink:href="#L" transform="matrix(1,0,0,1,225,5081.903914590746) translate(106.88888888888889 62.701388888888886)"/><path d="M1080 5088a8 8 0 0 1 8-8h144a8 8 0 0 1 8 8v104a8 8 0 0 1-8 8h-144a8 8 0 0 1-8-8z" stroke="#000" stroke-opacity="0" fill="#c3f7c8"/><use xlink:href="#F" transform="matrix(1,0,0,1,1085,5085) translate(1.6296296296296475 62.701388888888886)"/><use xlink:href="#M" transform="matrix(1,0,0,1,1085,5085) translate(106.88888888888889 62.701388888888886)"/><path d="M1820 5088a8 8 0 0 1 8-8h144a8 8 0 0 1 8 8v104a8 8 0 0 1-8 8h-144a8 8 0 0 1-8-8z" stroke="#000" stroke-opacity="0" fill="#c3f7c8"/><use xlink:href="#F" transform="matrix(1,0,0,1,1825,5085) translate(1.6296296296296475 62.701388888888886)"/><use xlink:href="#N" transform="matrix(1,0,0,1,1825,5085) translate(106.88888888888889 62.701388888888886)"/><path d="M-560 5254.1a8 8 0 0 1 8-8h104a8 8 0 0 1 8 8v72.8a8 8 0 0 1-8 8h-104a8 8 0 0 1-8-8z" stroke="#000" stroke-opacity="0" fill="#f2f3f5"/><use xlink:href="#O" transform="matrix(1,0,0,1,-555,5251.092592592593) translate(24.94272976680385 28.740354938271594)"/><use xlink:href="#P" transform="matrix(1,0,0,1,-555,5251.092592592593) translate(23.984910836762705 68.14776234567898)"/><path d="M240 5240.2a8 8 0 0 1 8-8h104a8 8 0 0 1 8 8v72.8a8 8 0 0 1-8 8H248a8 8 0 0 1-8-8z" stroke="#000" stroke-opacity="0" fill="#f2f3f5"/><use xlink:href="#O" transform="matrix(1,0,0,1,245,5237.185185185185) translate(24.94272976680385 28.740354938271594)"/><use xlink:href="#Q" transform="matrix(1,0,0,1,245,5237.185185185185) translate(23.984910836762705 68.14776234567898)"/><path d="M1100 5240.2a8 8 0 0 1 8-8h104a8 8 0 0 1 8 8v72.8a8 8 0 0 1-8 8h-104a8 8 0 0 1-8-8z" stroke="#000" stroke-opacity="0" fill="#f2f3f5"/><use xlink:href="#O" transform="matrix(1,0,0,1,1105,5237.185185185185) translate(24.94272976680385 28.740354938271594)"/><use xlink:href="#R" transform="matrix(1,0,0,1,1105,5237.185185185185) translate(23.984910836762705 68.14776234567898)"/><path d="M1840 5240.2a8 8 0 0 1 8-8h104a8 8 0 0 1 8 8v71.8a8 8 0 0 1-8 8h-104a8 8 0 0 1-8-8z" stroke="#000" stroke-opacity="0" fill="#f2f3f5"/><use xlink:href="#O" transform="matrix(1,0,0,1,1845,5237.185185185185) translate(24.94272976680385 28.709104938271594)"/><use xlink:href="#S" transform="matrix(1,0,0,1,1845,5237.185185185185) translate(23.984910836762705 68.11651234567898)"/><path d="M-840 5368a8 8 0 0 1 8-8h144a8 8 0 0 1 8 8v104a8 8 0 0 1-8 8h-144a8 8 0 0 1-8-8z" stroke="#000" stroke-opacity="0" fill="#c3f7c8"/><use xlink:href="#T" transform="matrix(1,0,0,1,-835,5365) translate(26.691358024691368 42.076388888888886)"/><use xlink:href="#U" transform="matrix(1,0,0,1,-835,5365) translate(43.88888888888889 79.40972222222221)"/><path d="M-360 5368a8 8 0 0 1 8-8h144a8 8 0 0 1 8 8v104a8 8 0 0 1-8 8h-144a8 8 0 0 1-8-8z" stroke="#000" stroke-opacity="0" fill="#c3f7c8"/><use xlink:href="#T" transform="matrix(1,0,0,1,-355,5365) translate(26.691358024691368 42.076388888888886)"/><use xlink:href="#V" transform="matrix(1,0,0,1,-355,5365) translate(43.88888888888889 79.40972222222221)"/><path d="M-35 5368a8 8 0 0 1 8-8h144a8 8 0 0 1 8 8v104a8 8 0 0 1-8 8H-27a8 8 0 0 1-8-8z" stroke="#000" stroke-opacity="0" fill="#c3f7c8"/><use xlink:href="#T" transform="matrix(1,0,0,1,-30,5365) translate(26.691358024691368 42.076388888888886)"/><use xlink:href="#W" transform="matrix(1,0,0,1,-30,5365) translate(43.88888888888889 79.40972222222221)"/><path d="M420 5368a8 8 0 0 1 8-8h144a8 8 0 0 1 8 8v104a8 8 0 0 1-8 8H428a8 8 0 0 1-8-8z" stroke="#000" stroke-opacity="0" fill="#c3f7c8"/><use xlink:href="#T" transform="matrix(1,0,0,1,425,5365) translate(26.691358024691368 42.076388888888886)"/><use xlink:href="#X" transform="matrix(1,0,0,1,425,5365) translate(43.88888888888889 79.40972222222221)"/><path d="M841.96 5368a8 8 0 0 1 8-8h144a8 8 0 0 1 8 8v104a8 8 0 0 1-8 8h-144a8 8 0 0 1-8-8z" stroke="#000" stroke-opacity="0" fill="#c3f7c8"/><use xlink:href="#T" transform="matrix(1,0,0,1,846.9565812408055,5365) translate(26.691358024691368 42.076388888888886)"/><use xlink:href="#Y" transform="matrix(1,0,0,1,846.9565812408055,5365) translate(43.88888888888889 79.40972222222221)"/><path d="M1320 5368a8 8 0 0 1 8-8h144a8 8 0 0 1 8 8v104a8 8 0 0 1-8 8h-144a8 8 0 0 1-8-8z" stroke="#000" stroke-opacity="0" fill="#c3f7c8"/><use xlink:href="#T" transform="matrix(1,0,0,1,1325,5365) translate(26.691358024691368 42.076388888888886)"/><use xlink:href="#Z" transform="matrix(1,0,0,1,1325,5365) translate(43.88888888888889 79.40972222222221)"/><path d="M1620 5368a8 8 0 0 1 8-8h144a8 8 0 0 1 8 8v104a8 8 0 0 1-8 8h-144a8 8 0 0 1-8-8z" stroke="#000" stroke-opacity="0" fill="#c3f7c8"/><use xlink:href="#T" transform="matrix(1,0,0,1,1625,5365) translate(26.691358024691368 42.076388888888886)"/><use xlink:href="#aa" transform="matrix(1,0,0,1,1625,5365) translate(43.88888888888889 79.40972222222221)"/><path d="M2060 5368a8 8 0 0 1 8-8h144a8 8 0 0 1 8 8v104a8 8 0 0 1-8 8h-144a8 8 0 0 1-8-8z" stroke="#000" stroke-opacity="0" fill="#c3f7c8"/><use xlink:href="#T" transform="matrix(1,0,0,1,2065,5365) translate(26.691358024691368 42.076388888888886)"/><use xlink:href="#ab" transform="matrix(1,0,0,1,2065,5365) translate(43.88888888888889 79.40972222222221)"/><path d="M680 4740.5v19" stroke="#333" fill="none"/><path d="M680.5 4740.5h-1v-.5h1zM680.5 4760h-1v-.5h1z" stroke="#333" stroke-width=".05" fill="#333"/><path d="M-80 4940.5v59" stroke="#333" fill="none"/><path d="M-79.5 4940.5h-1v-.5h1zM-79.5 5000h-1v-.5h1z" stroke="#333" stroke-width=".05" fill="#333"/><path d="M-500 5197.4v48.2" stroke="#333" fill="none"/><path d="M-499.5 5197.42h-1v-.52h1zM-499.5 5246.1h-1v-.52h1z" stroke="#333" stroke-width=".05" fill="#333"/><path d="M300 5197.4v34.3" stroke="#333" fill="none"/><path d="M300.5 5197.42h-1v-.52h1zM300.5 5232.2h-1v-.53h1z" stroke="#333" stroke-width=".05" fill="#333"/><path d="M1160 5200.5v31.2" stroke="#333" fill="none"/><path d="M1160.5 5200.5h-1v-.5h1zM1160.5 5232.2h-1v-.53h1z" stroke="#333" stroke-width=".05" fill="#333"/><path d="M1520 4940.5v59" stroke="#333" fill="none"/><path d="M1520.5 4940.5h-1v-.5h1zM1520.5 5000h-1v-.5h1z" stroke="#333" stroke-width=".05" fill="#333"/><path d="M1900 5200.5v31.2" stroke="#333" fill="none"/><path d="M1900.5 5200.5h-1v-.5h1zM1900.5 5232.2h-1v-.53h1z" stroke="#333" stroke-width=".05" fill="#333"/><path d="M680 4820.5v47.5a12 12 0 0 1-12 12H6.87" stroke="#333" fill="none"/><path d="M680.5 4820.5h-1v-.5h1z" stroke="#333" stroke-width=".05" fill="#333"/><path d="M.98 4880l12.9-7.64v15.28z" stroke="#333" fill="#333"/><path d="M680 4820.5v47.5a12 12 0 0 0 12 12h741.13" stroke="#333" fill="none"/><path d="M680.5 4820.5h-1v-.5h1z" stroke="#333" stroke-width=".05" fill="#333"/><path d="M1439.02 4880l-12.9 7.64v-15.28z" stroke="#333" fill="#333"/><path d="M-80 5061.5v63.4a12 12 0 0 1-12 12h-321.13" stroke="#333" fill="none"/><path d="M-79.5 5061.5h-1v-.5h1z" stroke="#333" stroke-width=".05" fill="#333"/><path d="M-419.02 5136.9l12.9-7.63v15.27z" stroke="#333" fill="#333"/><path d="M-80 5061.5v63.4a12 12 0 0 0 12 12h281.13" stroke="#333" fill="none"/><path d="M-79.5 5061.5h-1v-.5h1z" stroke="#333" stroke-width=".05" fill="#333"/><path d="M219.02 5136.9l-12.9 7.64v-15.27z" stroke="#333" fill="#333"/><path d="M-500 5335.4v72.6a12 12 0 0 1-12 12h-161.13" stroke="#333" fill="none"/><path d="M-499.5 5335.42h-1v-.5h1z" stroke="#333" stroke-width=".05" fill="#333"/><path d="M-679.02 5420l12.9-7.64v15.28z" stroke="#333" fill="#333"/><path d="M-500 5335.4v72.6a12 12 0 0 0 12 12h121.13" stroke="#333" fill="none"/><path d="M-499.5 5335.42h-1v-.5h1z" stroke="#333" stroke-width=".05" fill="#333"/><path d="M-360.98 5420l-12.9 7.64v-15.28z" stroke="#333" fill="#333"/><path d="M300 5321.5v86.5a12 12 0 0 1-12 12H131.87" stroke="#333" fill="none"/><path d="M300.5 5321.5h-1v-.5h1z" stroke="#333" stroke-width=".05" fill="#333"/><path d="M125.98 5420l12.9-7.64v15.28z" stroke="#333" fill="#333"/><path d="M300 5321.5v86.5a12 12 0 0 0 12 12h101.13" stroke="#333" fill="none"/><path d="M300.5 5321.5h-1v-.5h1z" stroke="#333" stroke-width=".05" fill="#333"/><path d="M419.02 5420l-12.9 7.64v-15.28z" stroke="#333" fill="#333"/><path d="M1520 5061.5v66.5a12 12 0 0 1-12 12h-261.13" stroke="#333" fill="none"/><path d="M1520.5 5061.5h-1v-.5h1z" stroke="#333" stroke-width=".05" fill="#333"/><path d="M1240.98 5140l12.9-7.64v15.28z" stroke="#333" fill="#333"/><path d="M1520 5061.5v66.5a12 12 0 0 0 12 12h281.13" stroke="#333" fill="none"/><path d="M1520.5 5061.5h-1v-.5h1z" stroke="#333" stroke-width=".05" fill="#333"/><path d="M1819.02 5140l-12.9 7.64v-15.28z" stroke="#333" fill="#333"/><path d="M1160 5321.5v86.5a12 12 0 0 1-12 12h-139.17" stroke="#333" fill="none"/><path d="M1160.5 5321.5h-1v-.5h1z" stroke="#333" stroke-width=".05" fill="#333"/><path d="M1002.94 5420l12.9-7.64v15.28z" stroke="#333" fill="#333"/><path d="M1160 5321.5v86.5a12 12 0 0 0 12 12h141.13" stroke="#333" fill="none"/><path d="M1160.5 5321.5h-1v-.5h1z" stroke="#333" stroke-width=".05" fill="#333"/><path d="M1319.02 5420l-12.9 7.64v-15.28z" stroke="#333" fill="#333"/><path d="M1900 5320.5v87.5a12 12 0 0 1-12 12h-101.13" stroke="#333" fill="none"/><path d="M1900.5 5320.5h-1v-.5h1z" stroke="#333" stroke-width=".05" fill="#333"/><path d="M1780.98 5420l12.9-7.64v15.28z" stroke="#333" fill="#333"/><path d="M1900 5320.5v87.5a12 12 0 0 0 12 12h141.13" stroke="#333" fill="none"/><path d="M1900.5 5320.5h-1v-.5h1z" stroke="#333" stroke-width=".05" fill="#333"/><path d="M2059.02 5420l-12.9 7.64v-15.28z" stroke="#333" fill="#333"/><path d="M-700 6268a8 8 0 0 1 8-8h144a8 8 0 0 1 8 8v104a8 8 0 0 1-8 8h-144a8 8 0 0 1-8-8z" stroke="#000" stroke-opacity="0" fill="#ffdda6"/><use xlink:href="#c" transform="matrix(1,0,0,1,-695,6265) translate(55.925925925925924 59.02777777777778)"/><path d="M2460 6528a8 8 0 0 1 8-8h144a8 8 0 0 1 8 8v104a8 8 0 0 1-8 8h-144a8 8 0 0 1-8-8z" stroke="#000" stroke-opacity="0" fill="#ffd9d9"/><use xlink:href="#f" transform="matrix(1,0,0,1,2465,6525) translate(56.48148148148148 59.02777777777778)"/><path d="M-280 5480.5v12.63" stroke="#333" fill="none"/><path d="M-279.5 5480.5h-1v-.5h1z" stroke="#333" stroke-width=".05" fill="#333"/><path d="M-280 5499.02l-7.64-12.9h15.28z" stroke="#333" fill="#333"/><path d="M-280 5589.3v453.1a12 12 0 0 0 12 12h2796a12 12 0 0 1 12 12v446.73" stroke="#333" fill="none"/><path d="M-279.5 5589.33h-1v-.52h1z" stroke="#333" stroke-width=".05" fill="#333"/><path d="M2540 6519.02l-7.64-12.9h15.28z" stroke="#333" fill="#333"/><path d="M2140 5604.9v315.3a12 12 0 0 1-12 12H-608a12 12 0 0 0-12 12v308.93" stroke="#333" fill="none"/><path d="M2140.5 5604.92h-1v-.5h1z" stroke="#333" stroke-width=".05" fill="#333"/><path d="M-620 6259.02l-7.64-12.9h15.28z" stroke="#333" fill="#333"/><path d="M2140 5480.5v28.22" stroke="#333" fill="none"/><path d="M2140.5 5480.5h-1v-.5h1z" stroke="#333" stroke-width=".05" fill="#333"/><path d="M2140 5514.6l-7.64-12.9h15.28z" stroke="#333" fill="#333"/><path d="M1700 5480.5v28.22" stroke="#333" fill="none"/><path d="M1700.5 5480.5h-1v-.5h1z" stroke="#333" stroke-width=".05" fill="#333"/><path d="M1700 5514.6l-7.64-12.9h15.28z" stroke="#333" fill="#333"/><path d="M1700 5604.9v445.3a12 12 0 0 0 12 12h816a12 12 0 0 1 12 12v438.93" stroke="#333" fill="none"/><path d="M1700.5 5604.92h-1v-.5h1z" stroke="#333" stroke-width=".05" fill="#333"/><path d="M2540 6519.02l-7.64-12.9h15.28z" stroke="#333" fill="#333"/><path d="M1400 5480.5v12.63" stroke="#333" fill="none"/><path d="M1400.5 5480.5h-1v-.5h1z" stroke="#333" stroke-width=".05" fill="#333"/><path d="M1400 5499.02l-7.64-12.9h15.28z" stroke="#333" fill="#333"/><path d="M1400 5589.3v453.1a12 12 0 0 0 12 12h1116a12 12 0 0 1 12 12v446.73" stroke="#333" fill="none"/><path d="M1400.5 5589.33h-1v-.52h1z" stroke="#333" stroke-width=".05" fill="#333"/><path d="M2540 6519.02l-7.64-12.9h15.28z" stroke="#333" fill="#333"/><path d="M921.96 5604.9v315.3a12 12 0 0 1-12 12H-608a12 12 0 0 0-12 12v308.93" stroke="#333" fill="none"/><path d="M922.46 5604.92h-1v-.5h1z" stroke="#333" stroke-width=".05" fill="#333"/><path d="M-620 6259.02l-7.64-12.9h15.28z" stroke="#333" fill="#333"/><path d="M921.96 5480.5v28.22" stroke="#333" fill="none"/><path d="M922.46 5480.5h-1v-.5h1z" stroke="#333" stroke-width=".05" fill="#333"/><path d="M921.96 5514.6l-7.64-12.9h15.27z" stroke="#333" fill="#333"/><path d="M-760 5609.3v313.1a12 12 0 0 0 12 12h116a12 12 0 0 1 12 12v306.73" stroke="#333" fill="none"/><path d="M-759.5 5609.33h-1v-.52h1z" stroke="#333" stroke-width=".05" fill="#333"/><path d="M-620 6259.02l-7.64-12.9h15.28z" stroke="#333" fill="#333"/><path d="M-760 5480.5v32.63" stroke="#333" fill="none"/><path d="M-759.5 5480.5h-1v-.5h1z" stroke="#333" stroke-width=".05" fill="#333"/><path d="M-760 5519.02l-7.64-12.9h15.28z" stroke="#333" fill="#333"/><path d="M500 5480.5v32.63" stroke="#333" fill="none"/><path d="M500.5 5480.5h-1v-.5h1z" stroke="#333" stroke-width=".05" fill="#333"/><path d="M500 5519.02l-7.64-12.9h15.28z" stroke="#333" fill="#333"/><path d="M500 5609.3v313.1a12 12 0 0 1-12 12H-608a12 12 0 0 0-12 12v306.73" stroke="#333" fill="none"/><path d="M500.5 5609.33h-1v-.52h1z" stroke="#333" stroke-width=".05" fill="#333"/><path d="M-620 6259.02l-7.64-12.9h15.28z" stroke="#333" fill="#333"/><path d="M40 5604.9v445.3a12 12 0 0 0 12 12h2476a12 12 0 0 1 12 12v438.93" stroke="#333" fill="none"/><path d="M40.5 5604.92h-1v-.5h1z" stroke="#333" stroke-width=".05" fill="#333"/><path d="M2540 6519.02l-7.64-12.9h15.28z" stroke="#333" fill="#333"/><path d="M45 5480.5v14.8a2.5 2.5 0 0 1-2.5 2.5 2.5 2.5 0 0 0-2.5 2.5v8.42" stroke="#333" fill="none"/><path d="M45.5 5480.5h-1v-.5h1z" stroke="#333" stroke-width=".05" fill="#333"/><path d="M40 5514.6l-7.64-12.9h15.28z" stroke="#333" fill="#333"/><path d="M-820 5528a8 8 0 0 1 8-8h104a8 8 0 0 1 8 8v72.8a8 8 0 0 1-8 8h-104a8 8 0 0 1-8-8z" stroke="#000" stroke-opacity="0" fill="#f2f3f5"/><g><use xlink:href="#O" transform="matrix(1,0,0,1,-815,5525) translate(24.94272976680385 28.740354938271594)"/><use xlink:href="#ac" transform="matrix(1,0,0,1,-815,5525) translate(29.50377229080934 68.14776234567898)"/></g><path d="M440 5528a8 8 0 0 1 8-8h104a8 8 0 0 1 8 8v72.8a8 8 0 0 1-8 8H448a8 8 0 0 1-8-8z" stroke="#000" stroke-opacity="0" fill="#f2f3f5"/><g><use xlink:href="#O" transform="matrix(1,0,0,1,445,5525) translate(24.94272976680385 28.740354938271594)"/><use xlink:href="#ac" transform="matrix(1,0,0,1,445,5525) translate(29.50377229080934 68.14776234567898)"/></g><path d="M861.96 5523.6a8 8 0 0 1 8-8h104a8 8 0 0 1 8 8v72.8a8 8 0 0 1-8 8h-104a8 8 0 0 1-8-8z" stroke="#000" stroke-opacity="0" fill="#f2f3f5"/><g><use xlink:href="#O" transform="matrix(1,0,0,1,866.9565812408055,5520.592592592593) translate(24.94272976680385 28.740354938271594)"/><use xlink:href="#ac" transform="matrix(1,0,0,1,866.9565812408055,5520.592592592593) translate(29.50377229080934 68.14776234567898)"/></g><path d="M2080 5523.6a8 8 0 0 1 8-8h104a8 8 0 0 1 8 8v72.8a8 8 0 0 1-8 8h-104a8 8 0 0 1-8-8z" stroke="#000" stroke-opacity="0" fill="#f2f3f5"/><g><use xlink:href="#O" transform="matrix(1,0,0,1,2085,5520.592592592593) translate(24.94272976680385 28.740354938271594)"/><use xlink:href="#ac" transform="matrix(1,0,0,1,2085,5520.592592592593) translate(29.50377229080934 68.14776234567898)"/></g><path d="M1640 5523.6a8 8 0 0 1 8-8h104a8 8 0 0 1 8 8v72.8a8 8 0 0 1-8 8h-104a8 8 0 0 1-8-8z" stroke="#000" stroke-opacity="0" fill="#f2f3f5"/><g><use xlink:href="#O" transform="matrix(1,0,0,1,1645,5520.592592592593) translate(24.94272976680385 28.740354938271594)"/><use xlink:href="#ad" transform="matrix(1,0,0,1,1645,5520.592592592593) translate(30.461591220850494 68.14776234567898)"/></g><path d="M1340 5508a8 8 0 0 1 8-8h104a8 8 0 0 1 8 8v72.8a8 8 0 0 1-8 8h-104a8 8 0 0 1-8-8z" stroke="#000" stroke-opacity="0" fill="#f2f3f5"/><g><use xlink:href="#O" transform="matrix(1,0,0,1,1345,5505) translate(24.94272976680385 28.740354938271594)"/><use xlink:href="#ad" transform="matrix(1,0,0,1,1345,5505) translate(30.461591220850494 68.14776234567898)"/></g><path d="M-20 5523.6a8 8 0 0 1 8-8H92a8 8 0 0 1 8 8v72.8a8 8 0 0 1-8 8H-12a8 8 0 0 1-8-8z" stroke="#000" stroke-opacity="0" fill="#f2f3f5"/><g><use xlink:href="#O" transform="matrix(1,0,0,1,-15,5520.592592592593) translate(24.94272976680385 28.740354938271594)"/><use xlink:href="#ad" transform="matrix(1,0,0,1,-15,5520.592592592593) translate(30.461591220850494 68.14776234567898)"/></g><path d="M-340 5508a8 8 0 0 1 8-8h104a8 8 0 0 1 8 8v72.8a8 8 0 0 1-8 8h-104a8 8 0 0 1-8-8z" stroke="#000" stroke-opacity="0" fill="#f2f3f5"/><g><use xlink:href="#O" transform="matrix(1,0,0,1,-335,5505) translate(24.94272976680385 28.740354938271594)"/><use xlink:href="#ad" transform="matrix(1,0,0,1,-335,5505) translate(30.461591220850494 68.14776234567898)"/></g><defs><path fill="#333" d="M24-248c93 1 206-16 204 79-1 75-69 88-152 82V0H24v-248zm52 121c47 0 100 7 100-41 0-47-54-39-100-39v80" id="ae"/><path fill="#333" d="M240-174c0 40-23 61-54 70L253 0h-59l-57-94H76V0H24v-248c93 4 217-23 216 74zM76-134c48-2 112 12 112-38 0-48-66-32-112-35v73" id="af"/><path fill="#333" d="M140-251c80 0 125 45 125 126S219 4 139 4C58 4 15-44 15-125s44-126 125-126zm-1 214c52 0 73-35 73-88 0-50-21-86-72-86-52 0-73 35-73 86s22 88 72 88" id="ag"/><path fill="#333" d="M24 0v-248h52v208h133V0H24" id="ah"/><path fill="#333" d="M67-125c0 54 23 88 75 88 28 0 53-7 68-21v-34h-60v-39h108v91C232-14 192 4 140 4 58 4 20-42 15-125 8-236 126-280 215-234c19 10 29 26 37 47l-47 15c-11-23-29-39-63-39-53 1-75 33-75 86" id="ai"/><path fill="#333" d="M238-95c0 69-44 99-111 99C63 4 22-25 22-93v-155h51v151c-1 38 19 59 55 60 90 1 49-130 58-211h52v153" id="aj"/><path fill="#333" d="M24 0v-248h195v40H76v63h132v40H76v65h150V0H24" id="ak"/><g id="a"><use transform="matrix(0.19753086419753074,0,0,0.19753086419753074,0,0)" xlink:href="#ae"/><use transform="matrix(0.19753086419753074,0,0,0.19753086419753074,47.407407407407376,0)" xlink:href="#af"/><use transform="matrix(0.19753086419753074,0,0,0.19753086419753074,98.56790123456784,0)" xlink:href="#ag"/><use transform="matrix(0.19753086419753074,0,0,0.19753086419753074,153.87654320987644,0)" xlink:href="#ah"/><use transform="matrix(0.19753086419753074,0,0,0.19753086419753074,197.13580246913568,0)" xlink:href="#ag"/><use transform="matrix(0.19753086419753074,0,0,0.19753086419753074,252.4444444444443,0)" xlink:href="#ai"/><use transform="matrix(0.19753086419753074,0,0,0.19753086419753074,307.7530864197529,0)" xlink:href="#aj"/><use transform="matrix(0.19753086419753074,0,0,0.19753086419753074,358.91358024691334,0)" xlink:href="#ak"/></g><path fill="#333" d="M30-248c118-7 216 8 213 122C240-48 200 0 122 0H30v-248zM63-27c89 8 146-16 146-99s-60-101-146-95v194" id="al"/><path fill="#333" d="M100-194c63 0 86 42 84 106H49c0 40 14 67 53 68 26 1 43-12 49-29l28 8c-11 28-37 45-77 45C44 4 14-33 15-96c1-61 26-98 85-98zm52 81c6-60-76-77-97-28-3 7-6 17-6 28h103" id="am"/><path fill="#333" d="M135-143c-3-34-86-38-87 0 15 53 115 12 119 90S17 21 10-45l28-5c4 36 97 45 98 0-10-56-113-15-118-90-4-57 82-63 122-42 12 7 21 19 24 35" id="an"/><path fill="#333" d="M114-163C36-179 61-72 57 0H25l-1-190h30c1 12-1 29 2 39 6-27 23-49 58-41v29" id="ao"/><path fill="#333" d="M59-47c-2 24 18 29 38 22v24C64 9 27 4 27-40v-127H5v-23h24l9-43h21v43h35v23H59v120" id="ap"/><g id="b"><use transform="matrix(0.06172839506172839,0,0,0.06172839506172839,0,0)" xlink:href="#al"/><use transform="matrix(0.06172839506172839,0,0,0.06172839506172839,15.987654320987653,0)" xlink:href="#am"/><use transform="matrix(0.06172839506172839,0,0,0.06172839506172839,28.333333333333332,0)" xlink:href="#an"/><use transform="matrix(0.06172839506172839,0,0,0.06172839506172839,39.44444444444444,0)" xlink:href="#am"/><use transform="matrix(0.06172839506172839,0,0,0.06172839506172839,51.79012345679012,0)" xlink:href="#ao"/><use transform="matrix(0.06172839506172839,0,0,0.06172839506172839,59.1358024691358,0)" xlink:href="#ap"/></g><path fill="#333" d="M212-179c-10-28-35-45-73-45-59 0-87 40-87 99 0 60 29 101 89 101 43 0 62-24 78-52l27 14C228-24 195 4 139 4 59 4 22-46 18-125c-6-104 99-153 187-111 19 9 31 26 39 46" id="aq"/><path fill="#333" d="M24-231v-30h32v30H24zM24 0v-190h32V0H24" id="ar"/><path fill="#333" d="M179-190L93 31C79 59 56 82 12 73V49c39 6 53-20 64-50L1-190h34L92-34l54-156h33" id="as"/><g id="c"><use transform="matrix(0.06172839506172839,0,0,0.06172839506172839,0,0)" xlink:href="#aq"/><use transform="matrix(0.06172839506172839,0,0,0.06172839506172839,15.987654320987653,0)" xlink:href="#ar"/><use transform="matrix(0.06172839506172839,0,0,0.06172839506172839,20.864197530864196,0)" xlink:href="#ap"/><use transform="matrix(0.06172839506172839,0,0,0.06172839506172839,27.037037037037035,0)" xlink:href="#as"/></g><path fill="#333" d="M140-251c81 0 123 46 123 126C263-46 219 4 140 4 59 4 17-45 17-125s42-126 123-126zm0 227c63 0 89-41 89-101s-29-99-89-99c-61 0-89 39-89 99S79-25 140-24" id="at"/><path fill="#333" d="M96-169c-40 0-48 33-48 73s9 75 48 75c24 0 41-14 43-38l32 2c-6 37-31 61-74 61-59 0-76-41-82-99-10-93 101-131 147-64 4 7 5 14 7 22l-32 3c-4-21-16-35-41-35" id="au"/><path fill="#333" d="M141-36C126-15 110 5 73 4 37 3 15-17 15-53c-1-64 63-63 125-63 3-35-9-54-41-54-24 1-41 7-42 31l-33-3c5-37 33-52 76-52 45 0 72 20 72 64v82c-1 20 7 32 28 27v20c-31 9-61-2-59-35zM48-53c0 20 12 33 32 33 41-3 63-29 60-74-43 2-92-5-92 41" id="av"/><path fill="#333" d="M117-194c89-4 53 116 60 194h-32v-121c0-31-8-49-39-48C34-167 62-67 57 0H25l-1-190h30c1 10-1 24 2 32 11-22 29-35 61-36" id="aw"/><g id="d"><use transform="matrix(0.06172839506172839,0,0,0.06172839506172839,0,0)" xlink:href="#at"/><use transform="matrix(0.06172839506172839,0,0,0.06172839506172839,17.28395061728395,0)" xlink:href="#au"/><use transform="matrix(0.06172839506172839,0,0,0.06172839506172839,28.39506172839506,0)" xlink:href="#am"/><use transform="matrix(0.06172839506172839,0,0,0.06172839506172839,40.74074074074074,0)" xlink:href="#av"/><use transform="matrix(0.06172839506172839,0,0,0.06172839506172839,53.08641975308642,0)" xlink:href="#aw"/></g><path fill="#333" d="M63-220v92h138v28H63V0H30v-248h175v28H63" id="ax"/><path fill="#333" d="M100-194c62-1 85 37 85 99 1 63-27 99-86 99S16-35 15-95c0-66 28-99 85-99zM99-20c44 1 53-31 53-75 0-43-8-75-51-75s-53 32-53 75 10 74 51 75" id="ay"/><g id="e"><use transform="matrix(0.06172839506172839,0,0,0.06172839506172839,0,0)" xlink:href="#ax"/><use transform="matrix(0.06172839506172839,0,0,0.06172839506172839,13.518518518518517,0)" xlink:href="#ay"/><use transform="matrix(0.06172839506172839,0,0,0.06172839506172839,25.864197530864196,0)" xlink:href="#ao"/><use transform="matrix(0.06172839506172839,0,0,0.06172839506172839,33.20987654320987,0)" xlink:href="#am"/><use transform="matrix(0.06172839506172839,0,0,0.06172839506172839,45.55555555555555,0)" xlink:href="#an"/><use transform="matrix(0.06172839506172839,0,0,0.06172839506172839,56.66666666666666,0)" xlink:href="#ap"/></g><path fill="#333" d="M185-189c-5-48-123-54-124 2 14 75 158 14 163 119 3 78-121 87-175 55-17-10-28-26-33-46l33-7c5 56 141 63 141-1 0-78-155-14-162-118-5-82 145-84 179-34 5 7 8 16 11 25" id="az"/><path fill="#333" d="M143 0L79-87 56-68V0H24v-261h32v163l83-92h37l-77 82L181 0h-38" id="aA"/><g id="f"><use transform="matrix(0.06172839506172839,0,0,0.06172839506172839,0,0)" xlink:href="#az"/><use transform="matrix(0.06172839506172839,0,0,0.06172839506172839,14.814814814814813,0)" xlink:href="#aA"/><use transform="matrix(0.06172839506172839,0,0,0.06172839506172839,25.925925925925924,0)" xlink:href="#as"/></g><path fill="#fff" d="M121-226c-27-7-43 5-38 36h38v33H83V0H34v-157H6v-33h28c-9-59 32-81 87-68v32" id="aB"/><path fill="#fff" d="M76-208v77h127v40H76V0H24v-248h183v40H76" id="aC"/><path fill="#fff" d="M24 0v-248h52V0H24" id="aD"/><path fill="#fff" d="M175 0L67-191c6 58 2 128 3 191H24v-248h59L193-55c-6-58-2-129-3-193h46V0h-61" id="aE"/><path fill="#fff" d="M199 0l-22-63H83L61 0H9l90-248h61L250 0h-51zm-33-102l-36-108c-10 38-24 72-36 108h72" id="aF"/><path fill="#fff" d="M24 0v-248h52v208h133V0H24" id="aG"/><g id="g"><use transform="matrix(0.06035665294924553,0,0,0.06035665294924553,0,0)" xlink:href="#aB"/><use transform="matrix(0.18998628257887493,0,0,0.18998628257887493,7.1824417009602195,0)" xlink:href="#aC"/><use transform="matrix(0.18998628257887493,0,0,0.18998628257887493,48.78943758573382,0)" xlink:href="#aD"/><use transform="matrix(0.18998628257887493,0,0,0.18998628257887493,67.78806584362133,0)" xlink:href="#aE"/><use transform="matrix(0.18998628257887493,0,0,0.18998628257887493,116.99451303154993,0)" xlink:href="#aF"/><use transform="matrix(0.18998628257887493,0,0,0.18998628257887493,166.20096021947853,0)" xlink:href="#aG"/></g><path fill="#fff" d="M67-125c0 53 21 87 73 88 37 1 54-22 65-47l45 17C233-25 199 4 140 4 58 4 20-42 15-125 8-235 124-281 211-232c18 10 29 29 36 50l-46 12c-8-25-30-41-62-41-52 0-71 34-72 86" id="aH"/><path fill="#fff" d="M136-208V0H84v-208H4v-40h212v40h-80" id="aI"/><g id="h"><use transform="matrix(0.18998628257887493,0,0,0.18998628257887493,0,0)" xlink:href="#aF"/><use transform="matrix(0.18998628257887493,0,0,0.18998628257887493,49.2064471879286,0)" xlink:href="#aH"/><use transform="matrix(0.18998628257887493,0,0,0.18998628257887493,98.4128943758572,0)" xlink:href="#aI"/></g><path fill="#fff" d="M67-125c0 54 23 88 75 88 28 0 53-7 68-21v-34h-60v-39h108v91C232-14 192 4 140 4 58 4 20-42 15-125 8-236 126-280 215-234c19 10 29 26 37 47l-47 15c-11-23-29-39-63-39-53 1-75 33-75 86" id="aJ"/><path fill="#fff" d="M230 0l2-204L168 0h-37L68-204 70 0H24v-248h70l56 185 57-185h69V0h-46" id="aK"/><path fill="#fff" d="M24 0v-248h195v40H76v63h132v40H76v65h150V0H24" id="aL"/><g id="i"><use transform="matrix(0.16529492455418368,0,0,0.16529492455418368,0,0)" xlink:href="#aJ"/><use transform="matrix(0.16529492455418368,0,0,0.16529492455418368,46.28257887517143,0)" xlink:href="#aF"/><use transform="matrix(0.16529492455418368,0,0,0.16529492455418368,89.093964334705,0)" xlink:href="#aK"/><use transform="matrix(0.16529492455418368,0,0,0.16529492455418368,138.51714677640592,0)" xlink:href="#aL"/></g><path fill="#fff" d="M140-251c80 0 125 45 125 126S219 4 139 4C58 4 15-44 15-125s44-126 125-126zm-1 214c52 0 73-35 73-88 0-50-21-86-72-86-52 0-73 35-73 86s22 88 72 88" id="aM"/><path fill="#fff" d="M147 0H94L2-248h55l64 206c17-72 42-137 63-206h54" id="aN"/><path fill="#fff" d="M240-174c0 40-23 61-54 70L253 0h-59l-57-94H76V0H24v-248c93 4 217-23 216 74zM76-134c48-2 112 12 112-38 0-48-66-32-112-35v73" id="aO"/><g id="j"><use transform="matrix(0.16529492455418368,0,0,0.16529492455418368,0,0)" xlink:href="#aM"/><use transform="matrix(0.16529492455418368,0,0,0.16529492455418368,46.28257887517143,0)" xlink:href="#aN"/><use transform="matrix(0.16529492455418368,0,0,0.16529492455418368,85.95336076817551,0)" xlink:href="#aL"/><use transform="matrix(0.16529492455418368,0,0,0.16529492455418368,125.6241426611796,0)" xlink:href="#aO"/></g><path fill="#333" d="M199 0l-22-63H83L61 0H9l90-248h61L250 0h-51zm-33-102l-36-108c-10 38-24 72-36 108h72" id="aP"/><path fill="#333" d="M67-125c0 53 21 87 73 88 37 1 54-22 65-47l45 17C233-25 199 4 140 4 58 4 20-42 15-125 8-235 124-281 211-232c18 10 29 29 36 50l-46 12c-8-25-30-41-62-41-52 0-71 34-72 86" id="aQ"/><path fill="#333" d="M136-208V0H84v-208H4v-40h212v40h-80" id="aR"/><g id="k"><use transform="matrix(0.24554183813443037,0,0,0.24554183813443037,0,0)" xlink:href="#aP"/><use transform="matrix(0.24554183813443037,0,0,0.24554183813443037,63.59533607681747,0)" xlink:href="#aQ"/><use transform="matrix(0.24554183813443037,0,0,0.24554183813443037,127.19067215363494,0)" xlink:href="#aR"/></g><path fill="#333" d="M23 0v-37h61v-169l-59 37v-38l62-41h46v211h57V0H23" id="aS"/><use transform="matrix(0.24554183813443037,0,0,0.24554183813443037,0,0)" xlink:href="#aS" id="l"/><path fill="#333" d="M182-182c0 78-84 86-111 141h115V0H12c-6-101 99-100 120-180 1-22-12-31-33-32-23 0-32 14-35 34l-49-3c5-45 32-70 84-70 51 0 83 22 83 69" id="aT"/><use transform="matrix(0.24554183813443037,0,0,0.24554183813443037,0,0)" xlink:href="#aT" id="m"/><path fill="#333" d="M128-127c34 4 56 21 59 58 7 91-148 94-172 28-4-9-6-17-7-26l51-5c1 24 16 35 40 36 23 0 39-12 38-36-1-31-31-36-65-34v-40c32 2 59-3 59-33 0-20-13-33-34-33s-33 13-35 32l-50-3c6-44 37-68 86-68 50 0 83 20 83 66 0 35-22 52-53 58" id="aU"/><use transform="matrix(0.24554183813443037,0,0,0.24554183813443037,0,0)" xlink:href="#aU" id="n"/><path fill="#333" d="M165-50V0h-47v-50H5v-38l105-160h55v161h33v37h-33zm-47-37l2-116L46-87h72" id="aV"/><use transform="matrix(0.24554183813443037,0,0,0.24554183813443037,0,0)" xlink:href="#aV" id="o"/><path fill="#333" d="M139-81c0-46-55-55-73-27H18l9-140h149v37H72l-4 63c44-38 133-4 122 66C201 21 21 35 11-62l49-4c5 18 15 30 39 30 26 0 40-18 40-45" id="aW"/><use transform="matrix(0.24554183813443037,0,0,0.24554183813443037,0,0)" xlink:href="#aW" id="p"/><path fill="#333" d="M143 4C61 4 22-44 18-125c-5-107 100-154 193-111 17 8 29 25 37 43l-32 9c-13-25-37-40-76-40-61 0-88 39-88 99 0 61 29 100 91 101 35 0 62-11 79-27v-45h-74v-28h105v86C228-13 192 4 143 4" id="aX"/><path fill="#333" d="M210-169c-67 3-38 105-44 169h-31v-121c0-29-5-50-35-48C34-165 62-65 56 0H25l-1-190h30c1 10-1 24 2 32 10-44 99-50 107 0 11-21 27-35 58-36 85-2 47 119 55 194h-31v-121c0-29-5-49-35-48" id="aY"/><g id="q"><use transform="matrix(0.5925925925925927,0,0,0.5925925925925927,0,0)" xlink:href="#aX"/><use transform="matrix(0.5925925925925927,0,0,0.5925925925925927,165.92592592592595,0)" xlink:href="#av"/><use transform="matrix(0.5925925925925927,0,0,0.5925925925925927,284.44444444444446,0)" xlink:href="#aY"/><use transform="matrix(0.5925925925925927,0,0,0.5925925925925927,461.6296296296297,0)" xlink:href="#am"/></g><path fill="#333" d="M106-169C34-169 62-67 57 0H25v-261h32l-1 103c12-21 28-36 61-36 89 0 53 116 60 194h-32v-121c2-32-8-49-39-48" id="aZ"/><g id="r"><use transform="matrix(0.5925925925925927,0,0,0.5925925925925927,0,0)" xlink:href="#az"/><use transform="matrix(0.5925925925925927,0,0,0.5925925925925927,142.22222222222223,0)" xlink:href="#au"/><use transform="matrix(0.5925925925925927,0,0,0.5925925925925927,248.8888888888889,0)" xlink:href="#aZ"/><use transform="matrix(0.5925925925925927,0,0,0.5925925925925927,367.40740740740745,0)" xlink:href="#am"/><use transform="matrix(0.5925925925925927,0,0,0.5925925925925927,485.925925925926,0)" xlink:href="#aY"/><use transform="matrix(0.5925925925925927,0,0,0.5925925925925927,663.1111111111112,0)" xlink:href="#av"/></g><path fill="#333" d="M177-190C167-65 218 103 67 71c-23-6-38-20-44-43l32-5c15 47 100 32 89-28v-30C133-14 115 1 83 1 29 1 15-40 15-95c0-56 16-97 71-98 29-1 48 16 59 35 1-10 0-23 2-32h30zM94-22c36 0 50-32 50-73 0-42-14-75-50-75-39 0-46 34-46 75s6 73 46 73" id="ba"/><g id="s"><use transform="matrix(0.5925925925925927,0,0,0.5925925925925927,0,0)" xlink:href="#az"/><use transform="matrix(0.5925925925925927,0,0,0.5925925925925927,142.22222222222223,0)" xlink:href="#am"/><use transform="matrix(0.5925925925925927,0,0,0.5925925925925927,260.74074074074076,0)" xlink:href="#ap"/><use transform="matrix(0.5925925925925927,0,0,0.5925925925925927,320,0)" xlink:href="#ap"/><use transform="matrix(0.5925925925925927,0,0,0.5925925925925927,379.25925925925924,0)" xlink:href="#ar"/><use transform="matrix(0.5925925925925927,0,0,0.5925925925925927,426.0740740740741,0)" xlink:href="#aw"/><use transform="matrix(0.5925925925925927,0,0,0.5925925925925927,544.5925925925926,0)" xlink:href="#ba"/></g><g id="t"><use transform="matrix(0.5925925925925927,0,0,0.5925925925925927,0,0)" xlink:href="#az"/><use transform="matrix(0.5925925925925927,0,0,0.5925925925925927,142.22222222222223,0)" xlink:href="#au"/><use transform="matrix(0.5925925925925927,0,0,0.5925925925925927,248.8888888888889,0)" xlink:href="#aZ"/><use transform="matrix(0.5925925925925927,0,0,0.5925925925925927,367.40740740740745,0)" xlink:href="#am"/><use transform="matrix(0.5925925925925927,0,0,0.5925925925925927,485.925925925926,0)" xlink:href="#aY"/><use transform="matrix(0.5925925925925927,0,0,0.5925925925925927,663.1111111111112,0)" xlink:href="#av"/></g><g id="u"><use transform="matrix(0.4924554183813431,0,0,0.4924554183813431,0,0)" xlink:href="#aP"/><use transform="matrix(0.4924554183813431,0,0,0.4924554183813431,127.54595336076787,0)" xlink:href="#aQ"/><use transform="matrix(0.4924554183813431,0,0,0.4924554183813431,255.09190672153574,0)" xlink:href="#aR"/></g><use transform="matrix(0.4924554183813431,0,0,0.4924554183813431,0,0)" xlink:href="#aS" id="v"/><use transform="matrix(0.4924554183813431,0,0,0.4924554183813431,0,0)" xlink:href="#aT" id="w"/><g id="x"><use transform="matrix(0.08641975308641973,0,0,0.08641975308641973,0,0)" xlink:href="#ax"/><use transform="matrix(0.08641975308641973,0,0,0.08641975308641973,18.92592592592592,0)" xlink:href="#ay"/><use transform="matrix(0.08641975308641973,0,0,0.08641975308641973,36.209876543209866,0)" xlink:href="#ao"/><use transform="matrix(0.08641975308641973,0,0,0.08641975308641973,46.493827160493815,0)" xlink:href="#am"/><use transform="matrix(0.08641975308641973,0,0,0.08641975308641973,63.77777777777776,0)" xlink:href="#an"/><use transform="matrix(0.08641975308641973,0,0,0.08641975308641973,79.33333333333331,0)" xlink:href="#ap"/></g><path fill="#333" d="M144 0l-44-69L55 0H2l70-98-66-92h53l41 62 40-62h54l-67 91 71 99h-54" id="bb"/><path fill="#333" d="M133-34C117-15 103 5 69 4 32 3 11-16 11-54c-1-60 55-63 116-61 1-26-3-47-28-47-18 1-26 9-28 27l-52-2c7-38 36-58 82-57s74 22 75 68l1 82c-1 14 12 18 25 15v27c-30 8-71 5-69-32zm-48 3c29 0 43-24 42-57-32 0-66-3-65 30 0 17 8 27 23 27" id="bc"/><path fill="#333" d="M220-157c-53 9-28 100-34 157h-49v-107c1-27-5-49-29-50C55-147 81-57 75 0H25l-1-190h47c2 12-1 28 3 38 10-53 101-56 108 0 13-22 24-43 59-42 82 1 51 116 57 194h-49v-107c-1-25-5-48-29-50" id="bd"/><path fill="#333" d="M135-194c53 0 70 44 70 98 0 56-19 98-73 100-31 1-45-17-59-34 3 33 2 69 2 105H25l-1-265h48c2 10 0 23 3 31 11-24 29-35 60-35zM114-30c33 0 39-31 40-66 0-38-9-64-40-64-56 0-55 130 0 130" id="be"/><path fill="#333" d="M25 0v-261h50V0H25" id="bf"/><path fill="#333" d="M185-48c-13 30-37 53-82 52C43 2 14-33 14-96s30-98 90-98c62 0 83 45 84 108H66c0 31 8 55 39 56 18 0 30-7 34-22zm-45-69c5-46-57-63-70-21-2 6-4 13-4 21h74" id="bg"/><g id="y"><use transform="matrix(0.14677640603566516,0,0,0.14677640603566516,0,0)" xlink:href="#ak"/><use transform="matrix(0.14677640603566516,0,0,0.14677640603566516,35.22633744855964,0)" xlink:href="#bb"/><use transform="matrix(0.14677640603566516,0,0,0.14677640603566516,64.58161865569267,0)" xlink:href="#bc"/><use transform="matrix(0.14677640603566516,0,0,0.14677640603566516,93.9368998628257,0)" xlink:href="#bd"/><use transform="matrix(0.14677640603566516,0,0,0.14677640603566516,140.90534979423853,0)" xlink:href="#be"/><use transform="matrix(0.14677640603566516,0,0,0.14677640603566516,173.0493827160492,0)" xlink:href="#bf"/><use transform="matrix(0.14677640603566516,0,0,0.14677640603566516,187.7270233196157,0)" xlink:href="#bg"/></g><path fill="#333" d="M231 0h-52l-39-155L100 0H48L-1-190h46L77-45c9-52 24-97 36-145h53l37 145 32-145h46" id="bh"/><path fill="#333" d="M25-224v-37h50v37H25zM25 0v-190h50V0H25" id="bi"/><path fill="#333" d="M115-3C79 11 28 4 28-45v-112H4v-33h27l15-45h31v45h36v33H77v99c-1 23 16 31 38 25v30" id="bj"/><path fill="#333" d="M114-157C55-157 80-60 75 0H25v-261h50l-1 109c12-26 28-41 61-42 86-1 58 113 63 194h-50c-7-57 23-157-34-157" id="bk"/><g id="z"><use transform="matrix(0.14677640603566516,0,0,0.14677640603566516,0,0)" xlink:href="#bh"/><use transform="matrix(0.14677640603566516,0,0,0.14677640603566516,41.09739368998625,0)" xlink:href="#bi"/><use transform="matrix(0.14677640603566516,0,0,0.14677640603566516,55.775034293552764,0)" xlink:href="#bj"/><use transform="matrix(0.14677640603566516,0,0,0.14677640603566516,73.24142661179692,0)" xlink:href="#bk"/></g><g id="A"><use transform="matrix(0.14677640603566516,0,0,0.14677640603566516,0,0)" xlink:href="#bj"/><use transform="matrix(0.14677640603566516,0,0,0.14677640603566516,17.466392318244154,0)" xlink:href="#bk"/><use transform="matrix(0.14677640603566516,0,0,0.14677640603566516,49.61042524005482,0)" xlink:href="#bg"/></g><path fill="#333" d="M76-208v77h127v40H76V0H24v-248h183v40H76" id="bl"/><path fill="#333" d="M110-194c64 0 96 36 96 99 0 64-35 99-97 99-61 0-95-36-95-99 0-62 34-99 96-99zm-1 164c35 0 45-28 45-65 0-40-10-65-43-65-34 0-45 26-45 65 0 36 10 65 43 65" id="bm"/><path fill="#333" d="M135-150c-39-12-60 13-60 57V0H25l-1-190h47c2 13-1 29 3 40 6-28 27-53 61-41v41" id="bn"/><path fill="#333" d="M137-138c1-29-70-34-71-4 15 46 118 7 119 86 1 83-164 76-172 9l43-7c4 19 20 25 44 25 33 8 57-30 24-41C81-84 22-81 20-136c-2-80 154-74 161-7" id="bo"/><g id="B"><use transform="matrix(0.14677640603566516,0,0,0.14677640603566516,0,0)" xlink:href="#bl"/><use transform="matrix(0.14677640603566516,0,0,0.14677640603566516,32.14403292181067,0)" xlink:href="#bm"/><use transform="matrix(0.14677640603566516,0,0,0.14677640603566516,64.28806584362134,0)" xlink:href="#bn"/><use transform="matrix(0.14677640603566516,0,0,0.14677640603566516,84.83676268861447,0)" xlink:href="#bg"/><use transform="matrix(0.14677640603566516,0,0,0.14677640603566516,114.1920438957475,0)" xlink:href="#bo"/><use transform="matrix(0.14677640603566516,0,0,0.14677640603566516,143.54732510288054,0)" xlink:href="#bj"/></g><path fill="#333" d="M169-182c-1-43-94-46-97-3 18 66 151 10 154 114 3 95-165 93-204 36-6-8-10-19-12-30l50-8c3 46 112 56 116 5-17-69-150-10-154-114-4-87 153-88 188-35 5 8 8 18 10 28" id="bp"/><path fill="#333" d="M135-194c87-1 58 113 63 194h-50c-7-57 23-157-34-157-59 0-34 97-39 157H25l-1-190h47c2 12-1 28 3 38 12-26 28-41 61-42" id="bq"/><path fill="#333" d="M195-6C206 82 75 100 31 46c-4-6-6-13-8-21l49-6c3 16 16 24 34 25 40 0 42-37 40-79-11 22-30 35-61 35-53 0-70-43-70-97 0-56 18-96 73-97 30 0 46 14 59 34l2-30h47zm-90-29c32 0 41-27 41-63 0-35-9-62-40-62-32 0-39 29-40 63 0 36 9 62 39 62" id="br"/><path fill="#333" d="M35-132v-50h50v50H35zM35 0v-49h50V0H35" id="bs"/><g id="C"><use transform="matrix(0.14677640603566516,0,0,0.14677640603566516,0,0)" xlink:href="#bp"/><use transform="matrix(0.14677640603566516,0,0,0.14677640603566516,35.22633744855964,0)" xlink:href="#bg"/><use transform="matrix(0.14677640603566516,0,0,0.14677640603566516,64.58161865569267,0)" xlink:href="#bj"/><use transform="matrix(0.14677640603566516,0,0,0.14677640603566516,82.04801097393681,0)" xlink:href="#bj"/><use transform="matrix(0.14677640603566516,0,0,0.14677640603566516,99.51440329218096,0)" xlink:href="#bi"/><use transform="matrix(0.14677640603566516,0,0,0.14677640603566516,114.19204389574747,0)" xlink:href="#bq"/><use transform="matrix(0.14677640603566516,0,0,0.14677640603566516,146.33607681755814,0)" xlink:href="#br"/><use transform="matrix(0.14677640603566516,0,0,0.14677640603566516,178.4801097393688,0)" xlink:href="#bs"/></g><path fill="#333" d="M127-220V0H93v-220H8v-28h204v28h-85" id="bt"/><path fill="#333" d="M141 0L90-78 38 0H4l68-98-65-92h35l48 74 47-74h35l-64 92 68 98h-35" id="bu"/><g id="D"><use transform="matrix(0.0912208504801097,0,0,0.0912208504801097,0,0)" xlink:href="#bt"/><use transform="matrix(0.0912208504801097,0,0,0.0912208504801097,16.328532235939637,0)" xlink:href="#am"/><use transform="matrix(0.0912208504801097,0,0,0.0912208504801097,34.57270233196158,0)" xlink:href="#bu"/><use transform="matrix(0.0912208504801097,0,0,0.0912208504801097,50.99245541838133,0)" xlink:href="#ap"/></g><path fill="#333" d="M27 0v-27h64v-190l-56 39v-29l58-41h29v221h61V0H27" id="bv"/><use transform="matrix(0.0912208504801097,0,0,0.0912208504801097,0,0)" xlink:href="#bv" id="E"/><g id="F"><use transform="matrix(0.08641975308641973,0,0,0.08641975308641973,0,0)" xlink:href="#aq"/><use transform="matrix(0.08641975308641973,0,0,0.08641975308641973,22.38271604938271,0)" xlink:href="#aZ"/><use transform="matrix(0.08641975308641973,0,0,0.08641975308641973,39.66666666666666,0)" xlink:href="#ay"/><use transform="matrix(0.08641975308641973,0,0,0.08641975308641973,56.950617283950606,0)" xlink:href="#ar"/><use transform="matrix(0.08641975308641973,0,0,0.08641975308641973,63.777777777777764,0)" xlink:href="#au"/><use transform="matrix(0.08641975308641973,0,0,0.08641975308641973,79.33333333333331,0)" xlink:href="#am"/></g><path fill="#333" d="M205 0l-28-72H64L36 0H1l101-248h38L239 0h-34zm-38-99l-47-123c-12 45-31 82-46 123h93" id="bw"/><use transform="matrix(0.08641975308641973,0,0,0.08641975308641973,0,0)" xlink:href="#bw" id="G"/><path fill="#333" d="M160-131c35 5 61 23 61 61C221 17 115-2 30 0v-248c76 3 177-17 177 60 0 33-19 50-47 57zm-97-11c50-1 110 9 110-42 0-47-63-36-110-37v79zm0 115c55-2 124 14 124-45 0-56-70-42-124-44v89" id="bx"/><use transform="matrix(0.08641975308641973,0,0,0.08641975308641973,0,0)" xlink:href="#bx" id="H"/><path fill="#333" d="M101-251c82-7 93 87 43 132L82-64C71-53 59-42 53-27h129V0H18c2-99 128-94 128-182 0-28-16-43-45-43s-46 15-49 41l-32-3c6-41 34-60 81-64" id="by"/><g id="I"><use transform="matrix(0.0912208504801097,0,0,0.0912208504801097,0,0)" xlink:href="#by"/><use transform="matrix(0.0912208504801097,0,0,0.0912208504801097,18.24417009602194,0)" xlink:href="#bw"/></g><g id="J"><use transform="matrix(0.0912208504801097,0,0,0.0912208504801097,0,0)" xlink:href="#by"/><use transform="matrix(0.0912208504801097,0,0,0.0912208504801097,18.24417009602194,0)" xlink:href="#bx"/></g><g id="K"><use transform="matrix(0.08641975308641973,0,0,0.08641975308641973,0,0)" xlink:href="#bw"/><use transform="matrix(0.08641975308641973,0,0,0.08641975308641973,20.740740740740737,0)" xlink:href="#bw"/></g><g id="L"><use transform="matrix(0.08641975308641973,0,0,0.08641975308641973,0,0)" xlink:href="#bw"/><use transform="matrix(0.08641975308641973,0,0,0.08641975308641973,20.740740740740737,0)" xlink:href="#bx"/></g><g id="M"><use transform="matrix(0.08641975308641973,0,0,0.08641975308641973,0,0)" xlink:href="#bx"/><use transform="matrix(0.08641975308641973,0,0,0.08641975308641973,20.740740740740737,0)" xlink:href="#bw"/></g><g id="N"><use transform="matrix(0.08641975308641973,0,0,0.08641975308641973,0,0)" xlink:href="#bx"/><use transform="matrix(0.08641975308641973,0,0,0.08641975308641973,20.740740740740737,0)" xlink:href="#bx"/></g><g id="O"><use transform="matrix(0.0912208504801097,0,0,0.0912208504801097,0,0)" xlink:href="#bt"/><use transform="matrix(0.0912208504801097,0,0,0.0912208504801097,16.328532235939637,0)" xlink:href="#am"/><use transform="matrix(0.0912208504801097,0,0,0.0912208504801097,34.57270233196158,0)" xlink:href="#bu"/><use transform="matrix(0.0912208504801097,0,0,0.0912208504801097,50.99245541838133,0)" xlink:href="#ap"/></g><path fill="#333" d="M126-127c33 6 58 20 58 59 0 88-139 92-164 29-3-8-5-16-6-25l32-3c6 27 21 44 54 44 32 0 52-15 52-46 0-38-36-46-79-43v-28c39 1 72-4 72-42 0-27-17-43-46-43-28 0-47 15-49 41l-32-3c6-42 35-63 81-64 48-1 79 21 79 65 0 36-21 52-52 59" id="bz"/><g id="P"><use transform="matrix(0.0912208504801097,0,0,0.0912208504801097,0,0)" xlink:href="#bz"/><use transform="matrix(0.0912208504801097,0,0,0.0912208504801097,18.24417009602194,0)" xlink:href="#bw"/><use transform="matrix(0.0912208504801097,0,0,0.0912208504801097,40.137174211248265,0)" xlink:href="#bw"/></g><g id="Q"><use transform="matrix(0.0912208504801097,0,0,0.0912208504801097,0,0)" xlink:href="#bz"/><use transform="matrix(0.0912208504801097,0,0,0.0912208504801097,18.24417009602194,0)" xlink:href="#bw"/><use transform="matrix(0.0912208504801097,0,0,0.0912208504801097,40.137174211248265,0)" xlink:href="#bx"/></g><g id="R"><use transform="matrix(0.0912208504801097,0,0,0.0912208504801097,0,0)" xlink:href="#bz"/><use transform="matrix(0.0912208504801097,0,0,0.0912208504801097,18.24417009602194,0)" xlink:href="#bx"/><use transform="matrix(0.0912208504801097,0,0,0.0912208504801097,40.137174211248265,0)" xlink:href="#bw"/></g><g id="S"><use transform="matrix(0.0912208504801097,0,0,0.0912208504801097,0,0)" xlink:href="#bz"/><use transform="matrix(0.0912208504801097,0,0,0.0912208504801097,18.24417009602194,0)" xlink:href="#bx"/><use transform="matrix(0.0912208504801097,0,0,0.0912208504801097,40.137174211248265,0)" xlink:href="#bx"/></g><g id="T"><use transform="matrix(0.08641975308641973,0,0,0.08641975308641973,0,0)" xlink:href="#aq"/><use transform="matrix(0.08641975308641973,0,0,0.08641975308641973,22.38271604938271,0)" xlink:href="#aZ"/><use transform="matrix(0.08641975308641973,0,0,0.08641975308641973,39.66666666666666,0)" xlink:href="#ay"/><use transform="matrix(0.08641975308641973,0,0,0.08641975308641973,56.950617283950606,0)" xlink:href="#ar"/><use transform="matrix(0.08641975308641973,0,0,0.08641975308641973,63.777777777777764,0)" xlink:href="#au"/><use transform="matrix(0.08641975308641973,0,0,0.08641975308641973,79.33333333333331,0)" xlink:href="#am"/></g><g id="U"><use transform="matrix(0.08641975308641973,0,0,0.08641975308641973,0,0)" xlink:href="#bw"/><use transform="matrix(0.08641975308641973,0,0,0.08641975308641973,20.740740740740737,0)" xlink:href="#bw"/><use transform="matrix(0.08641975308641973,0,0,0.08641975308641973,41.481481481481474,0)" xlink:href="#bw"/></g><g id="V"><use transform="matrix(0.08641975308641973,0,0,0.08641975308641973,0,0)" xlink:href="#bw"/><use transform="matrix(0.08641975308641973,0,0,0.08641975308641973,20.740740740740737,0)" xlink:href="#bw"/><use transform="matrix(0.08641975308641973,0,0,0.08641975308641973,41.481481481481474,0)" xlink:href="#bx"/></g><g id="W"><use transform="matrix(0.08641975308641973,0,0,0.08641975308641973,0,0)" xlink:href="#bw"/><use transform="matrix(0.08641975308641973,0,0,0.08641975308641973,20.740740740740737,0)" xlink:href="#bx"/><use transform="matrix(0.08641975308641973,0,0,0.08641975308641973,41.481481481481474,0)" xlink:href="#bw"/></g><g id="X"><use transform="matrix(0.08641975308641973,0,0,0.08641975308641973,0,0)" xlink:href="#bw"/><use transform="matrix(0.08641975308641973,0,0,0.08641975308641973,20.740740740740737,0)" xlink:href="#bx"/><use transform="matrix(0.08641975308641973,0,0,0.08641975308641973,41.481481481481474,0)" xlink:href="#bx"/></g><g id="Y"><use transform="matrix(0.08641975308641973,0,0,0.08641975308641973,0,0)" xlink:href="#bx"/><use transform="matrix(0.08641975308641973,0,0,0.08641975308641973,20.740740740740737,0)" xlink:href="#bw"/><use transform="matrix(0.08641975308641973,0,0,0.08641975308641973,41.481481481481474,0)" xlink:href="#bw"/></g><g id="Z"><use transform="matrix(0.08641975308641973,0,0,0.08641975308641973,0,0)" xlink:href="#bx"/><use transform="matrix(0.08641975308641973,0,0,0.08641975308641973,20.740740740740737,0)" xlink:href="#bw"/><use transform="matrix(0.08641975308641973,0,0,0.08641975308641973,41.481481481481474,0)" xlink:href="#bx"/></g><g id="aa"><use transform="matrix(0.08641975308641973,0,0,0.08641975308641973,0,0)" xlink:href="#bx"/><use transform="matrix(0.08641975308641973,0,0,0.08641975308641973,20.740740740740737,0)" xlink:href="#bx"/><use transform="matrix(0.08641975308641973,0,0,0.08641975308641973,41.481481481481474,0)" xlink:href="#bw"/></g><g id="ab"><use transform="matrix(0.08641975308641973,0,0,0.08641975308641973,0,0)" xlink:href="#bx"/><use transform="matrix(0.08641975308641973,0,0,0.08641975308641973,20.740740740740737,0)" xlink:href="#bx"/><use transform="matrix(0.08641975308641973,0,0,0.08641975308641973,41.481481481481474,0)" xlink:href="#bx"/></g><path fill="#333" d="M155-56V0h-30v-56H8v-25l114-167h33v167h35v25h-35zm-30-156c-27 46-58 90-88 131h88v-131" id="bA"/><path fill="#333" d="M16-82v-28h88v28H16" id="bB"/><path fill="#333" d="M195 0l-74-108L45 0H8l94-129-87-119h37l69 98 67-98h37l-84 118L233 0h-38" id="bC"/><g id="ac"><use transform="matrix(0.0912208504801097,0,0,0.0912208504801097,0,0)" xlink:href="#bA"/><use transform="matrix(0.0912208504801097,0,0,0.0912208504801097,18.24417009602194,0)" xlink:href="#bB"/><use transform="matrix(0.0912208504801097,0,0,0.0912208504801097,29.099451303154993,0)" xlink:href="#bC"/></g><path fill="#333" d="M209 0H11v-25l151-195H24v-28h176v25L50-27h159V0" id="bD"/><g id="ad"><use transform="matrix(0.0912208504801097,0,0,0.0912208504801097,0,0)" xlink:href="#bA"/><use transform="matrix(0.0912208504801097,0,0,0.0912208504801097,18.24417009602194,0)" xlink:href="#bB"/><use transform="matrix(0.0912208504801097,0,0,0.0912208504801097,29.099451303154993,0)" xlink:href="#bD"/></g></defs></g></svg>