<svg xmlns="http://www.w3.org/2000/svg" xmlns:xlink="http://www.w3.org/1999/xlink" xmlns:lucid="lucid" width="1673" height="1232"><g transform="translate(52 440)" lucid:page-tab-id="0_0"><path d="M-500-500h2500v1500H-500z" fill="#fff"/><path d="M219.5-171a5 5 0 0 1 5-5h430a5 5 0 0 1 5 5v126a5 5 0 0 1-5 5h-430a5 5 0 0 1-5-5z" fill="#fff"/><path d="M219.5-136v-35a5 5 0 0 1 5-5h430a5 5 0 0 1 5 5v35" fill="#dedeff"/><path d="M219.5-171a5 5 0 0 1 5-5h430a5 5 0 0 1 5 5v126a5 5 0 0 1-5 5h-430a5 5 0 0 1-5-5zM219.5-136h440M439.5-136v96" stroke="#282c33" fill="none"/><use xlink:href="#a" transform="matrix(1,0,0,1,229.5,-176) translate(0 23.6)"/><use xlink:href="#b" transform="matrix(1,0,0,1,224.5,-133.5) translate(0 17.1)"/><use xlink:href="#c" transform="matrix(1,0,0,1,444.5,-133.5) translate(0 17.1)"/><use xlink:href="#d" transform="matrix(1,0,0,1,224.5,-101.5) translate(0 17.1)"/><use xlink:href="#e" transform="matrix(1,0,0,1,444.5,-101.5) translate(0 17.1)"/><use xlink:href="#f" transform="matrix(1,0,0,1,224.5,-69.5) translate(0 17.1)"/><use xlink:href="#g" transform="matrix(1,0,0,1,444.5,-69.5) translate(0 17.1)"/><path d="M980-195a5 5 0 0 1 5-5h270a5 5 0 0 1 5 5v126a5 5 0 0 1-5 5H985a5 5 0 0 1-5-5z" fill="#fff"/><path d="M980-160v-35a5 5 0 0 1 5-5h270a5 5 0 0 1 5 5v35" fill="#dedeff"/><path d="M980-195a5 5 0 0 1 5-5h270a5 5 0 0 1 5 5v126a5 5 0 0 1-5 5H985a5 5 0 0 1-5-5zM980-160h280M1120-160v96" stroke="#282c33" fill="none"/><use xlink:href="#h" transform="matrix(1,0,0,1,990,-200) translate(0 23.6)"/><use xlink:href="#i" transform="matrix(1,0,0,1,985,-157.5) translate(0 17.1)"/><use xlink:href="#c" transform="matrix(1,0,0,1,1125,-157.5) translate(0 17.1)"/><use xlink:href="#j" transform="matrix(1,0,0,1,985,-125.5) translate(0 17.1)"/><use xlink:href="#k" transform="matrix(1,0,0,1,1125,-125.5) translate(0 17.1)"/><use xlink:href="#l" transform="matrix(1,0,0,1,985,-93.5) translate(0 17.1)"/><use xlink:href="#k" transform="matrix(1,0,0,1,1125,-93.5) translate(0 17.1)"/><path d="M260 117a5 5 0 0 1 5-5h270a5 5 0 0 1 5 5v222a5 5 0 0 1-5 5H265a5 5 0 0 1-5-5z" fill="#fff"/><path d="M260 152v-35a5 5 0 0 1 5-5h270a5 5 0 0 1 5 5v35" fill="#dedeff"/><path d="M260 117a5 5 0 0 1 5-5h270a5 5 0 0 1 5 5v222a5 5 0 0 1-5 5H265a5 5 0 0 1-5-5zM260 152h280M400 152v192" stroke="#282c33" fill="none"/><use xlink:href="#m" transform="matrix(1,0,0,1,270,112) translate(0 23.6)"/><use xlink:href="#n" transform="matrix(1,0,0,1,265,154.5) translate(0 17.1)"/><use xlink:href="#c" transform="matrix(1,0,0,1,405,154.5) translate(0 17.1)"/><use xlink:href="#o" transform="matrix(1,0,0,1,265,186.5) translate(0 17.1)"/><use xlink:href="#p" transform="matrix(1,0,0,1,405,186.5) translate(0 17.1)"/><use xlink:href="#q" transform="matrix(1,0,0,1,265,218.5) translate(0 17.1)"/><use xlink:href="#r" transform="matrix(1,0,0,1,405,218.5) translate(0 17.1)"/><use xlink:href="#s" transform="matrix(1,0,0,1,265,250.5) translate(0 17.1)"/><use xlink:href="#t" transform="matrix(1,0,0,1,405,250.5) translate(0 17.1)"/><use xlink:href="#u" transform="matrix(1,0,0,1,265,282.5) translate(0 17.1)"/><use xlink:href="#t" transform="matrix(1,0,0,1,405,282.5) translate(0 17.1)"/><use xlink:href="#v" transform="matrix(1,0,0,1,265,314.5) translate(0 17.1)"/><use xlink:href="#w" transform="matrix(1,0,0,1,405,314.5) translate(0 17.1)"/><path d="M40 425a5 5 0 0 1 5-5h630a5 5 0 0 1 5 5v222a5 5 0 0 1-5 5H45a5 5 0 0 1-5-5z" fill="#fff"/><path d="M40 460v-35a5 5 0 0 1 5-5h630a5 5 0 0 1 5 5v35" fill="#dedeff"/><path d="M40 425a5 5 0 0 1 5-5h630a5 5 0 0 1 5 5v222a5 5 0 0 1-5 5H45a5 5 0 0 1-5-5zM40 460h640M360 460v192" stroke="#282c33" fill="none"/><use xlink:href="#x" transform="matrix(1,0,0,1,50,420) translate(0 23.6)"/><use xlink:href="#n" transform="matrix(1,0,0,1,45,462.5) translate(0 17.1)"/><use xlink:href="#c" transform="matrix(1,0,0,1,365,462.5) translate(0 17.1)"/><use xlink:href="#y" transform="matrix(1,0,0,1,45,494.5) translate(0 17.1)"/><use xlink:href="#r" transform="matrix(1,0,0,1,365,494.5) translate(0 17.1)"/><use xlink:href="#z" transform="matrix(1,0,0,1,45,526.5) translate(0 17.1)"/><use xlink:href="#r" transform="matrix(1,0,0,1,365,526.5) translate(0 17.1)"/><use xlink:href="#o" transform="matrix(1,0,0,1,45,558.5) translate(0 17.1)"/><use xlink:href="#p" transform="matrix(1,0,0,1,365,558.5) translate(0 17.1)"/><use xlink:href="#s" transform="matrix(1,0,0,1,45,590.5) translate(0 17.1)"/><use xlink:href="#w" transform="matrix(1,0,0,1,365,590.5) translate(0 17.1)"/><use xlink:href="#u" transform="matrix(1,0,0,1,45,622.5) translate(0 17.1)"/><use xlink:href="#w" transform="matrix(1,0,0,1,365,622.5) translate(0 17.1)"/><path d="M960.5 185a5 5 0 0 1 5-5h630a5 5 0 0 1 5 5v254a5 5 0 0 1-5 5h-630a5 5 0 0 1-5-5z" fill="#fff"/><path d="M960.5 220v-35a5 5 0 0 1 5-5h630a5 5 0 0 1 5 5v35" fill="#dedeff"/><path d="M960.5 185a5 5 0 0 1 5-5h630a5 5 0 0 1 5 5v254a5 5 0 0 1-5 5h-630a5 5 0 0 1-5-5zM960.5 220h640M1280.5 220v224" stroke="#282c33" fill="none"/><use xlink:href="#A" transform="matrix(1,0,0,1,970.5,180) translate(0 23.6)"/><use xlink:href="#n" transform="matrix(1,0,0,1,965.5,222.5) translate(0 17.1)"/><use xlink:href="#c" transform="matrix(1,0,0,1,1285.5,222.5) translate(0 17.1)"/><use xlink:href="#i" transform="matrix(1,0,0,1,965.5,254.5) translate(0 17.1)"/><use xlink:href="#r" transform="matrix(1,0,0,1,1285.5,254.5) translate(0 17.1)"/><use xlink:href="#B" transform="matrix(1,0,0,1,965.5,286.5) translate(0 17.1)"/><use xlink:href="#r" transform="matrix(1,0,0,1,1285.5,286.5) translate(0 17.1)"/><use xlink:href="#C" transform="matrix(1,0,0,1,965.5,318.5) translate(0 17.1)"/><use xlink:href="#p" transform="matrix(1,0,0,1,1285.5,318.5) translate(0 17.1)"/><use xlink:href="#D" transform="matrix(1,0,0,1,965.5,350.5) translate(0 17.1)"/><use xlink:href="#E" transform="matrix(1,0,0,1,1285.5,350.5) translate(0 17.1)"/><use xlink:href="#j" transform="matrix(1,0,0,1,965.5,382.5) translate(0 17.1)"/><use xlink:href="#k" transform="matrix(1,0,0,1,1285.5,382.5) translate(0 17.1)"/><use xlink:href="#l" transform="matrix(1,0,0,1,965.5,414.5) translate(0 17.1)"/><use xlink:href="#k" transform="matrix(1,0,0,1,1285.5,414.5) translate(0 17.1)"/><path d="M560.5 168h177.75a12 12 0 0 1 12 12v44a12 12 0 0 0 12 12H940.6" stroke="#3a414a" fill="none"/><path d="M560.5 178v-20M540.5 168h20" stroke="#3a414a" fill="#fff"/><path d="M959.78 246l-20-10 20-10" stroke="#3a414a" fill="#fff" fill-opacity="0"/><path d="M959.78 236h-20" stroke="#3a414a" fill="#fff"/><path d="M1120-43.5V46a12 12 0 0 0 12 12h91.05a12 12 0 0 1 12 12v90.1" stroke="#3a414a" fill="none"/><path d="M1110-43.5h20M1120-63.5v20" stroke="#3a414a" fill="#fff"/><path d="M1225.05 179.28l10-20 10 20" stroke="#3a414a" fill="#fff" fill-opacity="0"/><path d="M1235.05 179.28v-20" stroke="#3a414a" fill="#fff"/><path d="M400 364.5v8a12 12 0 0 0 12 12h236a12 12 0 0 0 12-12V342a12 12 0 0 1 12-12h96.5a12 12 0 0 1 12 12v154a12 12 0 0 1-12 12h-68.6" stroke="#3a414a" fill="none"/><path d="M390 364.5h20M400 344.5v20" stroke="#3a414a" fill="#fff"/><path d="M680.72 498l20 10-20 10" stroke="#3a414a" fill="#fff" fill-opacity="0"/><path d="M680.72 508h20" stroke="#3a414a" fill="#fff"/><path d="M600-412a8 8 0 0 1 8-8h224a8 8 0 0 1 8 8v44a8 8 0 0 1-8 8H608a8 8 0 0 1-8-8z" fill="none"/><use xlink:href="#F" transform="matrix(1,0,0,1,600,-420) translate(17.61111111111117 30.399999999999984)"/><use xlink:href="#G" transform="matrix(1,0,0,1,600,-420) translate(37.87777777777782 75.99999999999997)"/><path d="M439.5-19.5v8a12 12 0 0 1-12 12h-196a12 12 0 0 0-12 12V220a12 12 0 0 0 12 12h8.6" stroke="#3a414a" fill="none"/><path d="M429.5-19.5h20M439.5-39.5v20" stroke="#3a414a" fill="#fff"/><path d="M259.28 242l-20-10 20-10" stroke="#3a414a" fill="#fff" fill-opacity="0"/><path d="M259.28 232h-20" stroke="#3a414a" fill="#fff"/><path d="M920 525a5 5 0 0 1 5-5h603a5 5 0 0 1 5 5v190a5 5 0 0 1-5 5H925a5 5 0 0 1-5-5z" fill="#fff"/><path d="M920 560v-35a5 5 0 0 1 5-5h603a5 5 0 0 1 5 5v35" fill="#dedeff"/><path d="M920 525a5 5 0 0 1 5-5h603a5 5 0 0 1 5 5v190a5 5 0 0 1-5 5H925a5 5 0 0 1-5-5zM920 560h613M1226.5 560v160" stroke="#282c33" fill="none"/><use xlink:href="#H" transform="matrix(1,0,0,1,930,520) translate(0 23.6)"/><use xlink:href="#I" transform="matrix(1,0,0,1,930,520) translate(168.75 23.6)"/><use xlink:href="#n" transform="matrix(1,0,0,1,925,562.5) translate(0 17.1)"/><use xlink:href="#c" transform="matrix(1,0,0,1,1231.5,562.5) translate(0 17.1)"/><use xlink:href="#J" transform="matrix(1,0,0,1,925,594.5) translate(0 17.1)"/><use xlink:href="#r" transform="matrix(1,0,0,1,1231.5,594.5) translate(0 17.1)"/><use xlink:href="#v" transform="matrix(1,0,0,1,925,626.5) translate(0 17.1)"/><use xlink:href="#r" transform="matrix(1,0,0,1,1231.5,626.5) translate(0 17.1)"/><use xlink:href="#j" transform="matrix(1,0,0,1,925,658.5) translate(0 17.1)"/><use xlink:href="#k" transform="matrix(1,0,0,1,1231.5,658.5) translate(0 17.1)"/><use xlink:href="#l" transform="matrix(1,0,0,1,925,690.5) translate(0 17.1)"/><use xlink:href="#k" transform="matrix(1,0,0,1,1231.5,690.5) translate(0 17.1)"/><path d="M199-120h-8a12 12 0 0 1-12-12v-16.03a12 12 0 0 0-12-12H-38a12 12 0 0 0-12 12V778a12 12 0 0 0 12 12h1252.5a12 12 0 0 0 12-12v-38.1" stroke="#3a414a" fill="none"/><path d="M199-130v20M219-120h-20" stroke="#3a414a" fill="#fff"/><path d="M1236.5 720.72l-10 20-10-20" stroke="#3a414a" fill="#fff" fill-opacity="0"/><path d="M1226.5 720.72v20" stroke="#3a414a" fill="#fff"/><path d="M1280.5 464.5v5.5a12 12 0 0 1-12 12h-30a12 12 0 0 0-12 12v6.1" stroke="#3a414a" fill="none"/><path d="M1270.5 464.5h20M1280.5 444.5v20" stroke="#3a414a" fill="#fff"/><path d="M1216.5 519.28l10-20 10 20" stroke="#3a414a" fill="#fff" fill-opacity="0"/><path d="M1226.5 519.28v-20" stroke="#3a414a" fill="#fff"/><defs><path fill="#333" d="M185-189c-5-48-123-54-124 2 14 75 158 14 163 119 3 78-121 87-175 55-17-10-28-26-33-46l33-7c5 56 141 63 141-1 0-78-155-14-162-118-5-82 145-84 179-34 5 7 8 16 11 25" id="K"/><path fill="#333" d="M100-194c63 0 86 42 84 106H49c0 40 14 67 53 68 26 1 43-12 49-29l28 8c-11 28-37 45-77 45C44 4 14-33 15-96c1-61 26-98 85-98zm52 81c6-60-76-77-97-28-3 7-6 17-6 28h103" id="L"/><path fill="#333" d="M59-47c-2 24 18 29 38 22v24C64 9 27 4 27-40v-127H5v-23h24l9-43h21v43h35v23H59v120" id="M"/><path fill="#333" d="M24-231v-30h32v30H24zM24 0v-190h32V0H24" id="N"/><path fill="#333" d="M117-194c89-4 53 116 60 194h-32v-121c0-31-8-49-39-48C34-167 62-67 57 0H25l-1-190h30c1 10-1 24 2 32 11-22 29-35 61-36" id="O"/><path fill="#333" d="M177-190C167-65 218 103 67 71c-23-6-38-20-44-43l32-5c15 47 100 32 89-28v-30C133-14 115 1 83 1 29 1 15-40 15-95c0-56 16-97 71-98 29-1 48 16 59 35 1-10 0-23 2-32h30zM94-22c36 0 50-32 50-73 0-42-14-75-50-75-39 0-46 34-46 75s6 73 46 73" id="P"/><path fill="#333" d="M135-143c-3-34-86-38-87 0 15 53 115 12 119 90S17 21 10-45l28-5c4 36 97 45 98 0-10-56-113-15-118-90-4-57 82-63 122-42 12 7 21 19 24 35" id="Q"/><g id="a"><use transform="matrix(0.05,0,0,0.05,0,0)" xlink:href="#K"/><use transform="matrix(0.05,0,0,0.05,12,0)" xlink:href="#L"/><use transform="matrix(0.05,0,0,0.05,22,0)" xlink:href="#M"/><use transform="matrix(0.05,0,0,0.05,27,0)" xlink:href="#M"/><use transform="matrix(0.05,0,0,0.05,32,0)" xlink:href="#N"/><use transform="matrix(0.05,0,0,0.05,35.95,0)" xlink:href="#O"/><use transform="matrix(0.05,0,0,0.05,45.95,0)" xlink:href="#P"/><use transform="matrix(0.05,0,0,0.05,55.95,0)" xlink:href="#Q"/></g><path fill="#333" d="M190 0L58-211 59 0H30v-248h39L202-35l-2-213h31V0h-41" id="R"/><path fill="#333" d="M141-36C126-15 110 5 73 4 37 3 15-17 15-53c-1-64 63-63 125-63 3-35-9-54-41-54-24 1-41 7-42 31l-33-3c5-37 33-52 76-52 45 0 72 20 72 64v82c-1 20 7 32 28 27v20c-31 9-61-2-59-35zM48-53c0 20 12 33 32 33 41-3 63-29 60-74-43 2-92-5-92 41" id="S"/><path fill="#333" d="M210-169c-67 3-38 105-44 169h-31v-121c0-29-5-50-35-48C34-165 62-65 56 0H25l-1-190h30c1 10-1 24 2 32 10-44 99-50 107 0 11-21 27-35 58-36 85-2 47 119 55 194h-31v-121c0-29-5-49-35-48" id="T"/><g id="b"><use transform="matrix(0.05,0,0,0.05,0,0)" xlink:href="#R"/><use transform="matrix(0.05,0,0,0.05,12.950000000000001,0)" xlink:href="#S"/><use transform="matrix(0.05,0,0,0.05,22.950000000000003,0)" xlink:href="#T"/><use transform="matrix(0.05,0,0,0.05,37.900000000000006,0)" xlink:href="#L"/></g><path fill="#333" d="M30-248c87 1 191-15 191 75 0 78-77 80-158 76V0H30v-248zm33 125c57 0 124 11 124-50 0-59-68-47-124-48v98" id="U"/><path fill="#333" d="M194 0L95-120 63-95V0H30v-248h33v124l119-124h40L117-140 236 0h-42" id="V"/><g id="c"><use transform="matrix(0.05,0,0,0.05,0,0)" xlink:href="#U"/><use transform="matrix(0.05,0,0,0.05,12,0)" xlink:href="#V"/></g><path fill="#333" d="M160-131c35 5 61 23 61 61C221 17 115-2 30 0v-248c76 3 177-17 177 60 0 33-19 50-47 57zm-97-11c50-1 110 9 110-42 0-47-63-36-110-37v79zm0 115c55-2 124 14 124-45 0-56-70-42-124-44v89" id="W"/><path fill="#333" d="M96-169c-40 0-48 33-48 73s9 75 48 75c24 0 41-14 43-38l32 2c-6 37-31 61-74 61-59 0-76-41-82-99-10-93 101-131 147-64 4 7 5 14 7 22l-32 3c-4-21-16-35-41-35" id="X"/><path fill="#333" d="M143 0L79-87 56-68V0H24v-261h32v163l83-92h37l-77 82L181 0h-38" id="Y"/><path fill="#333" d="M114-163C36-179 61-72 57 0H25l-1-190h30c1 12-1 29 2 39 6-27 23-49 58-41v29" id="Z"/><path fill="#333" d="M100-194c62-1 85 37 85 99 1 63-27 99-86 99S16-35 15-95c0-66 28-99 85-99zM99-20c44 1 53-31 53-75 0-43-8-75-51-75s-53 32-53 75 10 74 51 75" id="aa"/><path fill="#333" d="M84 4C-5 8 30-112 23-190h32v120c0 31 7 50 39 49 72-2 45-101 50-169h31l1 190h-30c-1-10 1-25-2-33-11 22-28 36-60 37" id="ab"/><path fill="#333" d="M85-194c31 0 48 13 60 33l-1-100h32l1 261h-30c-2-10 0-23-3-31C134-8 116 4 85 4 32 4 16-35 15-94c0-66 23-100 70-100zm9 24c-40 0-46 34-46 75 0 40 6 74 45 74 42 0 51-32 51-76 0-42-9-74-50-73" id="ac"/><g id="d"><use transform="matrix(0.05,0,0,0.05,0,0)" xlink:href="#W"/><use transform="matrix(0.05,0,0,0.05,12,0)" xlink:href="#S"/><use transform="matrix(0.05,0,0,0.05,22,0)" xlink:href="#X"/><use transform="matrix(0.05,0,0,0.05,31,0)" xlink:href="#Y"/><use transform="matrix(0.05,0,0,0.05,40,0)" xlink:href="#P"/><use transform="matrix(0.05,0,0,0.05,50,0)" xlink:href="#Z"/><use transform="matrix(0.05,0,0,0.05,55.95,0)" xlink:href="#aa"/><use transform="matrix(0.05,0,0,0.05,65.95,0)" xlink:href="#ab"/><use transform="matrix(0.05,0,0,0.05,75.95,0)" xlink:href="#O"/><use transform="matrix(0.05,0,0,0.05,85.95,0)" xlink:href="#ac"/><use transform="matrix(0.05,0,0,0.05,95.95,0)" xlink:href="#U"/><use transform="matrix(0.05,0,0,0.05,107.95,0)" xlink:href="#N"/><use transform="matrix(0.05,0,0,0.05,111.9,0)" xlink:href="#X"/></g><path fill="#333" d="M141 0L90-78 38 0H4l68-98-65-92h35l48 74 47-74h35l-64 92 68 98h-35" id="ad"/><path fill="#333" d="M87 75C49 33 22-17 22-94c0-76 28-126 65-167h31c-38 41-64 92-64 168S80 34 118 75H87" id="ae"/><path fill="#333" d="M179-190L93 31C79 59 56 82 12 73V49c39 6 53-20 64-50L1-190h34L92-34l54-156h33" id="af"/><path fill="#333" d="M33-261c38 41 65 92 65 168S71 34 33 75H2C39 34 66-17 66-93S39-220 2-261h31" id="ag"/><g id="e"><use transform="matrix(0.05,0,0,0.05,0,0)" xlink:href="#M"/><use transform="matrix(0.05,0,0,0.05,5,0)" xlink:href="#L"/><use transform="matrix(0.05,0,0,0.05,15,0)" xlink:href="#ad"/><use transform="matrix(0.05,0,0,0.05,24,0)" xlink:href="#M"/><use transform="matrix(0.05,0,0,0.05,29,0)" xlink:href="#ae"/><use transform="matrix(0.05,0,0,0.05,34.95,0)" xlink:href="#ac"/><use transform="matrix(0.05,0,0,0.05,44.95,0)" xlink:href="#N"/><use transform="matrix(0.05,0,0,0.05,48.900000000000006,0)" xlink:href="#Z"/><use transform="matrix(0.05,0,0,0.05,54.85,0)" xlink:href="#L"/><use transform="matrix(0.05,0,0,0.05,64.85000000000001,0)" xlink:href="#X"/><use transform="matrix(0.05,0,0,0.05,73.85000000000001,0)" xlink:href="#M"/><use transform="matrix(0.05,0,0,0.05,78.85000000000001,0)" xlink:href="#aa"/><use transform="matrix(0.05,0,0,0.05,88.85000000000001,0)" xlink:href="#Z"/><use transform="matrix(0.05,0,0,0.05,94.80000000000001,0)" xlink:href="#af"/><use transform="matrix(0.05,0,0,0.05,103.80000000000001,0)" xlink:href="#ag"/></g><path fill="#333" d="M212-179c-10-28-35-45-73-45-59 0-87 40-87 99 0 60 29 101 89 101 43 0 62-24 78-52l27 14C228-24 195 4 139 4 59 4 22-46 18-125c-6-104 99-153 187-111 19 9 31 26 39 46" id="ah"/><path fill="#333" d="M106-169C34-169 62-67 57 0H25v-261h32l-1 103c12-21 28-36 61-36 89 0 53 116 60 194h-32v-121c2-32-8-49-39-48" id="ai"/><g id="f"><use transform="matrix(0.05,0,0,0.05,0,0)" xlink:href="#ah"/><use transform="matrix(0.05,0,0,0.05,12.950000000000001,0)" xlink:href="#ai"/><use transform="matrix(0.05,0,0,0.05,22.950000000000003,0)" xlink:href="#S"/><use transform="matrix(0.05,0,0,0.05,32.95,0)" xlink:href="#Z"/><use transform="matrix(0.05,0,0,0.05,38.900000000000006,0)" xlink:href="#S"/><use transform="matrix(0.05,0,0,0.05,48.900000000000006,0)" xlink:href="#X"/><use transform="matrix(0.05,0,0,0.05,57.900000000000006,0)" xlink:href="#M"/><use transform="matrix(0.05,0,0,0.05,62.900000000000006,0)" xlink:href="#L"/><use transform="matrix(0.05,0,0,0.05,72.9,0)" xlink:href="#Z"/></g><g id="g"><use transform="matrix(0.05,0,0,0.05,0,0)" xlink:href="#M"/><use transform="matrix(0.05,0,0,0.05,5,0)" xlink:href="#L"/><use transform="matrix(0.05,0,0,0.05,15,0)" xlink:href="#ad"/><use transform="matrix(0.05,0,0,0.05,24,0)" xlink:href="#M"/><use transform="matrix(0.05,0,0,0.05,29,0)" xlink:href="#ac"/><use transform="matrix(0.05,0,0,0.05,39,0)" xlink:href="#N"/><use transform="matrix(0.05,0,0,0.05,42.95,0)" xlink:href="#Z"/><use transform="matrix(0.05,0,0,0.05,48.900000000000006,0)" xlink:href="#L"/><use transform="matrix(0.05,0,0,0.05,58.900000000000006,0)" xlink:href="#X"/><use transform="matrix(0.05,0,0,0.05,67.9,0)" xlink:href="#M"/><use transform="matrix(0.05,0,0,0.05,72.9,0)" xlink:href="#aa"/><use transform="matrix(0.05,0,0,0.05,82.9,0)" xlink:href="#Z"/><use transform="matrix(0.05,0,0,0.05,88.85000000000001,0)" xlink:href="#af"/><use transform="matrix(0.05,0,0,0.05,97.85000000000001,0)" xlink:href="#ag"/></g><path fill="#333" d="M232-93c-1 65-40 97-104 97C67 4 28-28 28-90v-158h33c8 89-33 224 67 224 102 0 64-133 71-224h33v155" id="aj"/><g id="h"><use transform="matrix(0.05,0,0,0.05,0,0)" xlink:href="#aj"/><use transform="matrix(0.05,0,0,0.05,12.950000000000001,0)" xlink:href="#Q"/><use transform="matrix(0.05,0,0,0.05,21.950000000000003,0)" xlink:href="#L"/><use transform="matrix(0.05,0,0,0.05,31.950000000000003,0)" xlink:href="#Z"/><use transform="matrix(0.05,0,0,0.05,37.900000000000006,0)" xlink:href="#Q"/></g><path fill="#333" d="M24 0v-261h32V0H24" id="ak"/><path fill="#333" d="M-5 72V49h209v23H-5" id="al"/><g id="i"><use transform="matrix(0.05,0,0,0.05,0,0)" xlink:href="#U"/><use transform="matrix(0.05,0,0,0.05,12,0)" xlink:href="#ak"/><use transform="matrix(0.05,0,0,0.05,15.949999999999998,0)" xlink:href="#S"/><use transform="matrix(0.05,0,0,0.05,25.950000000000003,0)" xlink:href="#af"/><use transform="matrix(0.05,0,0,0.05,34.95,0)" xlink:href="#L"/><use transform="matrix(0.05,0,0,0.05,44.95,0)" xlink:href="#Z"/><use transform="matrix(0.05,0,0,0.05,50.900000000000006,0)" xlink:href="#al"/><use transform="matrix(0.05,0,0,0.05,60.900000000000006,0)" xlink:href="#N"/><use transform="matrix(0.05,0,0,0.05,64.85000000000001,0)" xlink:href="#ac"/></g><g id="j"><use transform="matrix(0.05,0,0,0.05,0,0)" xlink:href="#ah"/><use transform="matrix(0.05,0,0,0.05,12.950000000000001,0)" xlink:href="#Z"/><use transform="matrix(0.05,0,0,0.05,18.900000000000002,0)" xlink:href="#L"/><use transform="matrix(0.05,0,0,0.05,28.900000000000002,0)" xlink:href="#S"/><use transform="matrix(0.05,0,0,0.05,38.900000000000006,0)" xlink:href="#M"/><use transform="matrix(0.05,0,0,0.05,43.900000000000006,0)" xlink:href="#L"/><use transform="matrix(0.05,0,0,0.05,53.900000000000006,0)" xlink:href="#ac"/><use transform="matrix(0.05,0,0,0.05,63.900000000000006,0)" xlink:href="#al"/><use transform="matrix(0.05,0,0,0.05,73.9,0)" xlink:href="#S"/><use transform="matrix(0.05,0,0,0.05,83.9,0)" xlink:href="#M"/></g><g id="k"><use transform="matrix(0.05,0,0,0.05,0,0)" xlink:href="#ac"/><use transform="matrix(0.05,0,0,0.05,10,0)" xlink:href="#S"/><use transform="matrix(0.05,0,0,0.05,20,0)" xlink:href="#M"/><use transform="matrix(0.05,0,0,0.05,25,0)" xlink:href="#L"/></g><path fill="#333" d="M115-194c55 1 70 41 70 98S169 2 115 4C84 4 66-9 55-30l1 105H24l-1-265h31l2 30c10-21 28-34 59-34zm-8 174c40 0 45-34 45-75s-6-73-45-74c-42 0-51 32-51 76 0 43 10 73 51 73" id="am"/><g id="l"><use transform="matrix(0.05,0,0,0.05,0,0)" xlink:href="#aj"/><use transform="matrix(0.05,0,0,0.05,12.950000000000001,0)" xlink:href="#am"/><use transform="matrix(0.05,0,0,0.05,22.950000000000003,0)" xlink:href="#ac"/><use transform="matrix(0.05,0,0,0.05,32.95,0)" xlink:href="#S"/><use transform="matrix(0.05,0,0,0.05,42.95,0)" xlink:href="#M"/><use transform="matrix(0.05,0,0,0.05,47.95,0)" xlink:href="#L"/><use transform="matrix(0.05,0,0,0.05,57.95,0)" xlink:href="#ac"/><use transform="matrix(0.05,0,0,0.05,67.95,0)" xlink:href="#al"/><use transform="matrix(0.05,0,0,0.05,77.95,0)" xlink:href="#S"/><use transform="matrix(0.05,0,0,0.05,87.95,0)" xlink:href="#M"/></g><path fill="#333" d="M30-248c118-7 216 8 213 122C240-48 200 0 122 0H30v-248zM63-27c89 8 146-16 146-99s-60-101-146-95v194" id="an"/><g id="m"><use transform="matrix(0.05,0,0,0.05,0,0)" xlink:href="#an"/><use transform="matrix(0.05,0,0,0.05,12.950000000000001,0)" xlink:href="#N"/><use transform="matrix(0.05,0,0,0.05,16.900000000000002,0)" xlink:href="#S"/><use transform="matrix(0.05,0,0,0.05,26.900000000000002,0)" xlink:href="#ak"/><use transform="matrix(0.05,0,0,0.05,30.85,0)" xlink:href="#aa"/><use transform="matrix(0.05,0,0,0.05,40.85,0)" xlink:href="#P"/><use transform="matrix(0.05,0,0,0.05,50.85,0)" xlink:href="#ab"/><use transform="matrix(0.05,0,0,0.05,60.85,0)" xlink:href="#L"/></g><path fill="#333" d="M33 0v-248h34V0H33" id="ao"/><g id="n"><use transform="matrix(0.05,0,0,0.05,0,0)" xlink:href="#ao"/><use transform="matrix(0.05,0,0,0.05,5,0)" xlink:href="#an"/></g><g id="o"><use transform="matrix(0.05,0,0,0.05,0,0)" xlink:href="#ah"/><use transform="matrix(0.05,0,0,0.05,12.950000000000001,0)" xlink:href="#ai"/><use transform="matrix(0.05,0,0,0.05,22.950000000000003,0)" xlink:href="#aa"/><use transform="matrix(0.05,0,0,0.05,32.95,0)" xlink:href="#N"/><use transform="matrix(0.05,0,0,0.05,36.900000000000006,0)" xlink:href="#X"/><use transform="matrix(0.05,0,0,0.05,45.900000000000006,0)" xlink:href="#L"/><use transform="matrix(0.05,0,0,0.05,55.900000000000006,0)" xlink:href="#al"/><use transform="matrix(0.05,0,0,0.05,65.9,0)" xlink:href="#M"/><use transform="matrix(0.05,0,0,0.05,70.9,0)" xlink:href="#L"/><use transform="matrix(0.05,0,0,0.05,80.9,0)" xlink:href="#ad"/><use transform="matrix(0.05,0,0,0.05,89.9,0)" xlink:href="#M"/></g><g id="p"><use transform="matrix(0.05,0,0,0.05,0,0)" xlink:href="#M"/><use transform="matrix(0.05,0,0,0.05,5,0)" xlink:href="#L"/><use transform="matrix(0.05,0,0,0.05,15,0)" xlink:href="#ad"/><use transform="matrix(0.05,0,0,0.05,24,0)" xlink:href="#M"/></g><g id="q"><use transform="matrix(0.05,0,0,0.05,0,0)" xlink:href="#K"/><use transform="matrix(0.05,0,0,0.05,12,0)" xlink:href="#L"/><use transform="matrix(0.05,0,0,0.05,22,0)" xlink:href="#M"/><use transform="matrix(0.05,0,0,0.05,27,0)" xlink:href="#M"/><use transform="matrix(0.05,0,0,0.05,32,0)" xlink:href="#N"/><use transform="matrix(0.05,0,0,0.05,35.95,0)" xlink:href="#O"/><use transform="matrix(0.05,0,0,0.05,45.95,0)" xlink:href="#P"/><use transform="matrix(0.05,0,0,0.05,55.95,0)" xlink:href="#al"/><use transform="matrix(0.05,0,0,0.05,65.95,0)" xlink:href="#N"/><use transform="matrix(0.05,0,0,0.05,69.9,0)" xlink:href="#ac"/></g><path fill="#333" d="M63-220v92h138v28H63V0H30v-248h175v28H63" id="ap"/><g id="r"><use transform="matrix(0.05,0,0,0.05,0,0)" xlink:href="#ap"/><use transform="matrix(0.05,0,0,0.05,10.950000000000001,0)" xlink:href="#V"/></g><path fill="#333" d="M140-251c81 0 123 46 123 126C263-46 219 4 140 4 59 4 17-45 17-125s42-126 123-126zm0 227c63 0 89-41 89-101s-29-99-89-99c-61 0-89 39-89 99S79-25 140-24" id="aq"/><g id="s"><use transform="matrix(0.05,0,0,0.05,0,0)" xlink:href="#aq"/><use transform="matrix(0.05,0,0,0.05,14,0)" xlink:href="#am"/><use transform="matrix(0.05,0,0,0.05,24,0)" xlink:href="#L"/><use transform="matrix(0.05,0,0,0.05,34,0)" xlink:href="#O"/><use transform="matrix(0.05,0,0,0.05,44,0)" xlink:href="#N"/><use transform="matrix(0.05,0,0,0.05,47.95,0)" xlink:href="#O"/><use transform="matrix(0.05,0,0,0.05,57.95,0)" xlink:href="#P"/><use transform="matrix(0.05,0,0,0.05,67.95,0)" xlink:href="#al"/><use transform="matrix(0.05,0,0,0.05,77.95,0)" xlink:href="#M"/><use transform="matrix(0.05,0,0,0.05,82.95,0)" xlink:href="#L"/><use transform="matrix(0.05,0,0,0.05,92.95,0)" xlink:href="#ad"/><use transform="matrix(0.05,0,0,0.05,101.95,0)" xlink:href="#M"/></g><g id="t"><use transform="matrix(0.05,0,0,0.05,0,0)" xlink:href="#W"/><use transform="matrix(0.05,0,0,0.05,12,0)" xlink:href="#aa"/><use transform="matrix(0.05,0,0,0.05,22,0)" xlink:href="#aa"/><use transform="matrix(0.05,0,0,0.05,32,0)" xlink:href="#ak"/><use transform="matrix(0.05,0,0,0.05,35.95,0)" xlink:href="#L"/><use transform="matrix(0.05,0,0,0.05,45.95,0)" xlink:href="#S"/><use transform="matrix(0.05,0,0,0.05,55.95,0)" xlink:href="#O"/></g><path fill="#333" d="M30 0v-248h187v28H63v79h144v27H63v87h162V0H30" id="ar"/><g id="u"><use transform="matrix(0.05,0,0,0.05,0,0)" xlink:href="#ar"/><use transform="matrix(0.05,0,0,0.05,12,0)" xlink:href="#O"/><use transform="matrix(0.05,0,0,0.05,22,0)" xlink:href="#ac"/><use transform="matrix(0.05,0,0,0.05,32,0)" xlink:href="#N"/><use transform="matrix(0.05,0,0,0.05,35.95,0)" xlink:href="#O"/><use transform="matrix(0.05,0,0,0.05,45.95,0)" xlink:href="#P"/><use transform="matrix(0.05,0,0,0.05,55.95,0)" xlink:href="#al"/><use transform="matrix(0.05,0,0,0.05,65.95,0)" xlink:href="#M"/><use transform="matrix(0.05,0,0,0.05,70.95,0)" xlink:href="#L"/><use transform="matrix(0.05,0,0,0.05,80.95,0)" xlink:href="#ad"/><use transform="matrix(0.05,0,0,0.05,89.95,0)" xlink:href="#M"/></g><g id="v"><use transform="matrix(0.05,0,0,0.05,0,0)" xlink:href="#K"/><use transform="matrix(0.05,0,0,0.05,12,0)" xlink:href="#L"/><use transform="matrix(0.05,0,0,0.05,22,0)" xlink:href="#M"/><use transform="matrix(0.05,0,0,0.05,27,0)" xlink:href="#M"/><use transform="matrix(0.05,0,0,0.05,32,0)" xlink:href="#N"/><use transform="matrix(0.05,0,0,0.05,35.95,0)" xlink:href="#O"/><use transform="matrix(0.05,0,0,0.05,45.95,0)" xlink:href="#P"/><use transform="matrix(0.05,0,0,0.05,55.95,0)" xlink:href="#al"/><use transform="matrix(0.05,0,0,0.05,65.95,0)" xlink:href="#O"/><use transform="matrix(0.05,0,0,0.05,75.95,0)" xlink:href="#S"/><use transform="matrix(0.05,0,0,0.05,85.95,0)" xlink:href="#T"/><use transform="matrix(0.05,0,0,0.05,100.9,0)" xlink:href="#L"/></g><path fill="#333" d="M127-220V0H93v-220H8v-28h204v28h-85" id="as"/><g id="w"><use transform="matrix(0.05,0,0,0.05,0,0)" xlink:href="#as"/><use transform="matrix(0.05,0,0,0.05,9.950000000000001,0)" xlink:href="#af"/><use transform="matrix(0.05,0,0,0.05,18.950000000000003,0)" xlink:href="#am"/><use transform="matrix(0.05,0,0,0.05,28.950000000000003,0)" xlink:href="#L"/></g><g id="x"><use transform="matrix(0.05,0,0,0.05,0,0)" xlink:href="#ah"/><use transform="matrix(0.05,0,0,0.05,12.950000000000001,0)" xlink:href="#ai"/><use transform="matrix(0.05,0,0,0.05,22.950000000000003,0)" xlink:href="#aa"/><use transform="matrix(0.05,0,0,0.05,32.95,0)" xlink:href="#N"/><use transform="matrix(0.05,0,0,0.05,36.900000000000006,0)" xlink:href="#X"/><use transform="matrix(0.05,0,0,0.05,45.900000000000006,0)" xlink:href="#L"/><use transform="matrix(0.05,0,0,0.05,55.900000000000006,0)" xlink:href="#Q"/></g><g id="y"><use transform="matrix(0.05,0,0,0.05,0,0)" xlink:href="#an"/><use transform="matrix(0.05,0,0,0.05,12.950000000000001,0)" xlink:href="#N"/><use transform="matrix(0.05,0,0,0.05,16.900000000000002,0)" xlink:href="#S"/><use transform="matrix(0.05,0,0,0.05,26.900000000000002,0)" xlink:href="#ak"/><use transform="matrix(0.05,0,0,0.05,30.85,0)" xlink:href="#aa"/><use transform="matrix(0.05,0,0,0.05,40.85,0)" xlink:href="#P"/><use transform="matrix(0.05,0,0,0.05,50.85,0)" xlink:href="#ab"/><use transform="matrix(0.05,0,0,0.05,60.85,0)" xlink:href="#L"/><use transform="matrix(0.05,0,0,0.05,70.85,0)" xlink:href="#al"/><use transform="matrix(0.05,0,0,0.05,80.85,0)" xlink:href="#N"/><use transform="matrix(0.05,0,0,0.05,84.8,0)" xlink:href="#ac"/><use transform="matrix(0.05,0,0,0.05,94.8,0)" xlink:href="#al"/><use transform="matrix(0.05,0,0,0.05,104.80000000000001,0)" xlink:href="#M"/><use transform="matrix(0.05,0,0,0.05,109.80000000000001,0)" xlink:href="#Z"/><use transform="matrix(0.05,0,0,0.05,115.75,0)" xlink:href="#aa"/><use transform="matrix(0.05,0,0,0.05,125.75,0)" xlink:href="#T"/></g><g id="z"><use transform="matrix(0.05,0,0,0.05,0,0)" xlink:href="#an"/><use transform="matrix(0.05,0,0,0.05,12.950000000000001,0)" xlink:href="#N"/><use transform="matrix(0.05,0,0,0.05,16.900000000000002,0)" xlink:href="#S"/><use transform="matrix(0.05,0,0,0.05,26.900000000000002,0)" xlink:href="#ak"/><use transform="matrix(0.05,0,0,0.05,30.85,0)" xlink:href="#aa"/><use transform="matrix(0.05,0,0,0.05,40.85,0)" xlink:href="#P"/><use transform="matrix(0.05,0,0,0.05,50.85,0)" xlink:href="#ab"/><use transform="matrix(0.05,0,0,0.05,60.85,0)" xlink:href="#L"/><use transform="matrix(0.05,0,0,0.05,70.85,0)" xlink:href="#al"/><use transform="matrix(0.05,0,0,0.05,80.85,0)" xlink:href="#N"/><use transform="matrix(0.05,0,0,0.05,84.8,0)" xlink:href="#ac"/><use transform="matrix(0.05,0,0,0.05,94.8,0)" xlink:href="#al"/><use transform="matrix(0.05,0,0,0.05,104.80000000000001,0)" xlink:href="#M"/><use transform="matrix(0.05,0,0,0.05,109.80000000000001,0)" xlink:href="#aa"/></g><path fill="#333" d="M16-82v-28h88v28H16" id="at"/><path fill="#333" d="M108 0H70L1-190h34L89-25l56-165h34" id="au"/><g id="A"><use transform="matrix(0.05,0,0,0.05,0,0)" xlink:href="#an"/><use transform="matrix(0.05,0,0,0.05,12.950000000000001,0)" xlink:href="#N"/><use transform="matrix(0.05,0,0,0.05,16.900000000000002,0)" xlink:href="#S"/><use transform="matrix(0.05,0,0,0.05,26.900000000000002,0)" xlink:href="#ak"/><use transform="matrix(0.05,0,0,0.05,30.85,0)" xlink:href="#aa"/><use transform="matrix(0.05,0,0,0.05,40.85,0)" xlink:href="#P"/><use transform="matrix(0.05,0,0,0.05,50.85,0)" xlink:href="#L"/><use transform="matrix(0.05,0,0,0.05,60.85,0)" xlink:href="#at"/><use transform="matrix(0.05,0,0,0.05,66.8,0)" xlink:href="#aj"/><use transform="matrix(0.05,0,0,0.05,79.75,0)" xlink:href="#Q"/><use transform="matrix(0.05,0,0,0.05,88.75,0)" xlink:href="#L"/><use transform="matrix(0.05,0,0,0.05,98.75,0)" xlink:href="#Z"/><use transform="matrix(0.05,0,0,0.05,104.7,0)" xlink:href="#ae"/><use transform="matrix(0.05,0,0,0.05,110.65,0)" xlink:href="#Q"/><use transform="matrix(0.05,0,0,0.05,119.65,0)" xlink:href="#S"/><use transform="matrix(0.05,0,0,0.05,129.65,0)" xlink:href="#au"/><use transform="matrix(0.05,0,0,0.05,138.65,0)" xlink:href="#L"/><use transform="matrix(0.05,0,0,0.05,148.65,0)" xlink:href="#ac"/><use transform="matrix(0.05,0,0,0.05,158.65,0)" xlink:href="#al"/><use transform="matrix(0.05,0,0,0.05,168.65,0)" xlink:href="#P"/><use transform="matrix(0.05,0,0,0.05,178.65,0)" xlink:href="#S"/><use transform="matrix(0.05,0,0,0.05,188.65,0)" xlink:href="#T"/><use transform="matrix(0.05,0,0,0.05,203.6,0)" xlink:href="#L"/><use transform="matrix(0.05,0,0,0.05,213.60000000000002,0)" xlink:href="#al"/><use transform="matrix(0.05,0,0,0.05,223.60000000000002,0)" xlink:href="#Q"/><use transform="matrix(0.05,0,0,0.05,232.60000000000002,0)" xlink:href="#ak"/><use transform="matrix(0.05,0,0,0.05,236.54999999999995,0)" xlink:href="#aa"/><use transform="matrix(0.05,0,0,0.05,246.54999999999995,0)" xlink:href="#M"/><use transform="matrix(0.05,0,0,0.05,251.54999999999995,0)" xlink:href="#ag"/></g><g id="B"><use transform="matrix(0.05,0,0,0.05,0,0)" xlink:href="#an"/><use transform="matrix(0.05,0,0,0.05,12.950000000000001,0)" xlink:href="#N"/><use transform="matrix(0.05,0,0,0.05,16.900000000000002,0)" xlink:href="#S"/><use transform="matrix(0.05,0,0,0.05,26.900000000000002,0)" xlink:href="#ak"/><use transform="matrix(0.05,0,0,0.05,30.85,0)" xlink:href="#aa"/><use transform="matrix(0.05,0,0,0.05,40.85,0)" xlink:href="#P"/><use transform="matrix(0.05,0,0,0.05,50.85,0)" xlink:href="#ab"/><use transform="matrix(0.05,0,0,0.05,60.85,0)" xlink:href="#L"/><use transform="matrix(0.05,0,0,0.05,70.85,0)" xlink:href="#al"/><use transform="matrix(0.05,0,0,0.05,80.85,0)" xlink:href="#N"/><use transform="matrix(0.05,0,0,0.05,84.8,0)" xlink:href="#ac"/></g><g id="C"><use transform="matrix(0.05,0,0,0.05,0,0)" xlink:href="#K"/><use transform="matrix(0.05,0,0,0.05,12,0)" xlink:href="#L"/><use transform="matrix(0.05,0,0,0.05,22,0)" xlink:href="#M"/><use transform="matrix(0.05,0,0,0.05,27,0)" xlink:href="#M"/><use transform="matrix(0.05,0,0,0.05,32,0)" xlink:href="#N"/><use transform="matrix(0.05,0,0,0.05,35.95,0)" xlink:href="#O"/><use transform="matrix(0.05,0,0,0.05,45.95,0)" xlink:href="#P"/></g><path fill="#333" d="M205 0l-28-72H64L36 0H1l101-248h38L239 0h-34zm-38-99l-47-123c-12 45-31 82-46 123h93" id="av"/><g id="D"><use transform="matrix(0.05,0,0,0.05,0,0)" xlink:href="#av"/><use transform="matrix(0.05,0,0,0.05,12,0)" xlink:href="#X"/><use transform="matrix(0.05,0,0,0.05,21,0)" xlink:href="#M"/></g><path fill="#333" d="M115-194c53 0 69 39 70 98 0 66-23 100-70 100C84 3 66-7 56-30L54 0H23l1-261h32v101c10-23 28-34 59-34zm-8 174c40 0 45-34 45-75 0-40-5-75-45-74-42 0-51 32-51 76 0 43 10 73 51 73" id="aw"/><g id="E"><use transform="matrix(0.05,0,0,0.05,0,0)" xlink:href="#O"/><use transform="matrix(0.05,0,0,0.05,10,0)" xlink:href="#ab"/><use transform="matrix(0.05,0,0,0.05,20,0)" xlink:href="#T"/><use transform="matrix(0.05,0,0,0.05,34.95,0)" xlink:href="#aw"/><use transform="matrix(0.05,0,0,0.05,44.95,0)" xlink:href="#L"/><use transform="matrix(0.05,0,0,0.05,54.95,0)" xlink:href="#Z"/></g><path fill="#3a414a" d="M24-248c120-7 223 5 221 122C244-46 201 0 124 0H24v-248zM76-40c74 7 117-18 117-86 0-67-45-88-117-82v168" id="ax"/><path fill="#3a414a" d="M199 0l-22-63H83L61 0H9l90-248h61L250 0h-51zm-33-102l-36-108c-10 38-24 72-36 108h72" id="ay"/><path fill="#3a414a" d="M136-208V0H84v-208H4v-40h212v40h-80" id="az"/><path fill="#3a414a" d="M182-130c37 4 62 22 62 59C244 23 116-4 24 0v-248c84 5 203-23 205 63 0 31-19 50-47 55zM76-148c40-3 101 13 101-30 0-44-60-28-101-31v61zm0 110c48-3 116 14 116-37 0-48-69-32-116-35v72" id="aA"/><path fill="#3a414a" d="M169-182c-1-43-94-46-97-3 18 66 151 10 154 114 3 95-165 93-204 36-6-8-10-19-12-30l50-8c3 46 112 56 116 5-17-69-150-10-154-114-4-87 153-88 188-35 5 8 8 18 10 28" id="aB"/><path fill="#3a414a" d="M24 0v-248h195v40H76v63h132v40H76v65h150V0H24" id="aC"/><g id="F"><use transform="matrix(0.1055555555555555,0,0,0.1055555555555555,0,0)" xlink:href="#ax"/><use transform="matrix(0.1055555555555555,0,0,0.1055555555555555,27.338888888888874,0)" xlink:href="#ay"/><use transform="matrix(0.1055555555555555,0,0,0.1055555555555555,51.827777777777754,0)" xlink:href="#az"/><use transform="matrix(0.1055555555555555,0,0,0.1055555555555555,72.0944444444444,0)" xlink:href="#ay"/><use transform="matrix(0.1055555555555555,0,0,0.1055555555555555,99.43333333333328,0)" xlink:href="#aA"/><use transform="matrix(0.1055555555555555,0,0,0.1055555555555555,126.77222222222215,0)" xlink:href="#ay"/><use transform="matrix(0.1055555555555555,0,0,0.1055555555555555,154.11111111111103,0)" xlink:href="#aB"/><use transform="matrix(0.1055555555555555,0,0,0.1055555555555555,179.44444444444434,0)" xlink:href="#aC"/></g><path fill="#3a414a" d="M67-125c0 53 21 87 73 88 37 1 54-22 65-47l45 17C233-25 199 4 140 4 58 4 20-42 15-125 8-235 124-281 211-232c18 10 29 29 36 50l-46 12c-8-25-30-41-62-41-52 0-71 34-72 86" id="aD"/><path fill="#3a414a" d="M186 0v-106H76V0H24v-248h52v99h110v-99h50V0h-50" id="aE"/><path fill="#3a414a" d="M230 0l2-204L168 0h-37L68-204 70 0H24v-248h70l56 185 57-185h69V0h-46" id="aF"/><g id="G"><use transform="matrix(0.1055555555555555,0,0,0.1055555555555555,0,0)" xlink:href="#aB"/><use transform="matrix(0.1055555555555555,0,0,0.1055555555555555,25.33333333333332,0)" xlink:href="#aD"/><use transform="matrix(0.1055555555555555,0,0,0.1055555555555555,52.672222222222196,0)" xlink:href="#aE"/><use transform="matrix(0.1055555555555555,0,0,0.1055555555555555,80.01111111111106,0)" xlink:href="#aC"/><use transform="matrix(0.1055555555555555,0,0,0.1055555555555555,105.34444444444438,0)" xlink:href="#aF"/><use transform="matrix(0.1055555555555555,0,0,0.1055555555555555,136.90555555555548,0)" xlink:href="#ay"/></g><g id="H"><use transform="matrix(0.05,0,0,0.05,0,0)" xlink:href="#U"/><use transform="matrix(0.05,0,0,0.05,12,0)" xlink:href="#Z"/><use transform="matrix(0.05,0,0,0.05,17.95,0)" xlink:href="#aa"/><use transform="matrix(0.05,0,0,0.05,27.950000000000003,0)" xlink:href="#P"/><use transform="matrix(0.05,0,0,0.05,37.95,0)" xlink:href="#Z"/><use transform="matrix(0.05,0,0,0.05,43.900000000000006,0)" xlink:href="#L"/><use transform="matrix(0.05,0,0,0.05,53.900000000000006,0)" xlink:href="#Q"/><use transform="matrix(0.05,0,0,0.05,62.900000000000006,0)" xlink:href="#Q"/><use transform="matrix(0.05,0,0,0.05,71.9,0)" xlink:href="#ae"/><use transform="matrix(0.05,0,0,0.05,77.85000000000001,0)" xlink:href="#ah"/><use transform="matrix(0.05,0,0,0.05,90.80000000000001,0)" xlink:href="#aa"/><use transform="matrix(0.05,0,0,0.05,100.80000000000001,0)" xlink:href="#O"/><use transform="matrix(0.05,0,0,0.05,110.80000000000001,0)" xlink:href="#X"/><use transform="matrix(0.05,0,0,0.05,119.80000000000001,0)" xlink:href="#ak"/><use transform="matrix(0.05,0,0,0.05,123.75,0)" xlink:href="#ab"/><use transform="matrix(0.05,0,0,0.05,133.75,0)" xlink:href="#ac"/><use transform="matrix(0.05,0,0,0.05,143.75,0)" xlink:href="#L"/><use transform="matrix(0.05,0,0,0.05,153.75,0)" xlink:href="#ac"/></g><g id="I"><use transform="matrix(0.05,0,0,0.05,0,0)" xlink:href="#K"/><use transform="matrix(0.05,0,0,0.05,12,0)" xlink:href="#L"/><use transform="matrix(0.05,0,0,0.05,22,0)" xlink:href="#M"/><use transform="matrix(0.05,0,0,0.05,27,0)" xlink:href="#M"/><use transform="matrix(0.05,0,0,0.05,32,0)" xlink:href="#N"/><use transform="matrix(0.05,0,0,0.05,35.95,0)" xlink:href="#O"/><use transform="matrix(0.05,0,0,0.05,45.95,0)" xlink:href="#P"/><use transform="matrix(0.05,0,0,0.05,55.95,0)" xlink:href="#Q"/><use transform="matrix(0.05,0,0,0.05,64.95,0)" xlink:href="#ag"/></g><g id="J"><use transform="matrix(0.05,0,0,0.05,0,0)" xlink:href="#an"/><use transform="matrix(0.05,0,0,0.05,12.950000000000001,0)" xlink:href="#N"/><use transform="matrix(0.05,0,0,0.05,16.900000000000002,0)" xlink:href="#S"/><use transform="matrix(0.05,0,0,0.05,26.900000000000002,0)" xlink:href="#ak"/><use transform="matrix(0.05,0,0,0.05,30.85,0)" xlink:href="#aa"/><use transform="matrix(0.05,0,0,0.05,40.85,0)" xlink:href="#P"/><use transform="matrix(0.05,0,0,0.05,50.85,0)" xlink:href="#ab"/><use transform="matrix(0.05,0,0,0.05,60.85,0)" xlink:href="#L"/><use transform="matrix(0.05,0,0,0.05,70.85,0)" xlink:href="#at"/><use transform="matrix(0.05,0,0,0.05,76.8,0)" xlink:href="#aj"/><use transform="matrix(0.05,0,0,0.05,89.75,0)" xlink:href="#Q"/><use transform="matrix(0.05,0,0,0.05,98.75,0)" xlink:href="#L"/><use transform="matrix(0.05,0,0,0.05,108.75,0)" xlink:href="#Z"/><use transform="matrix(0.05,0,0,0.05,114.7,0)" xlink:href="#al"/><use transform="matrix(0.05,0,0,0.05,124.7,0)" xlink:href="#N"/><use transform="matrix(0.05,0,0,0.05,128.65,0)" xlink:href="#ac"/></g></defs></g></svg>